SourceSans_Black.ufo
<glyph name="ampersand" format="2">
	<unicode hex="0026"/>
	<advance width="690"/>
	<outline>
		<contour>
			<point x="256" y="-12" type="curve" smooth="yes"/>
			<point x="376" y="-12"/>
			<point x="454" y="34"/>
			<point x="516" y="104" type="curve" smooth="yes"/>
			<point x="590" y="188"/>
			<point x="642" y="278"/>
			<point x="668" y="374" type="curve"/>
			<point x="512" y="374" type="line"/>
			<point x="490" y="292"/>
			<point x="448" y="228"/>
			<point x="398" y="180" type="curve" smooth="yes"/>
			<point x="356" y="142"/>
			<point x="310" y="118"/>
			<point x="268" y="118" type="curve" smooth="yes"/>
			<point x="220" y="118"/>
			<point x="184" y="138"/>
			<point x="184" y="186" type="curve" smooth="yes"/>
			<point x="184" y="296"/>
			<point x="458" y="332"/>
			<point x="458" y="508" type="curve" smooth="yes"/>
			<point x="458" y="602"/>
			<point x="390" y="662"/>
			<point x="286" y="662" type="curve" smooth="yes"/>
			<point x="170" y="662"/>
			<point x="98" y="580"/>
			<point x="98" y="486" type="curve" smooth="yes"/>
			<point x="98" y="359"/>
			<point x="244" y="182"/>
			<point x="415" y="75" type="curve" smooth="yes"/>
			<point x="485" y="31"/>
			<point x="560" y="0"/>
			<point x="630" y="-12" type="curve"/>
			<point x="670" y="126" type="line"/>
			<point x="638" y="132"/>
			<point x="574" y="150"/>
			<point x="518" y="183" type="curve" smooth="yes"/>
			<point x="384" y="262"/>
			<point x="240" y="386"/>
			<point x="240" y="486" type="curve" smooth="yes"/>
			<point x="240" y="528"/>
			<point x="264" y="550"/>
			<point x="290" y="550" type="curve" smooth="yes"/>
			<point x="315" y="550"/>
			<point x="328" y="536"/>
			<point x="328" y="508" type="curve" smooth="yes"/>
			<point x="328" y="386"/>
			<point x="22" y="396"/>
			<point x="22" y="176" type="curve" smooth="yes"/>
			<point x="22" y="64"/>
			<point x="108" y="-12"/>
		</contour>
	</outline>
</glyph>
<glyph name="two" format="2">
	<unicode hex="0032"/>
	<advance width="540"/>
	<outline>
		<contour>
			<point x="36" y="0" type="line"/>
			<point x="496" y="0" type="line"/>
			<point x="496" y="144" type="line"/>
			<point x="394" y="144" type="line" smooth="yes"/>
			<point x="366" y="144"/>
			<point x="320" y="140"/>
			<point x="288" y="136" type="curve"/>
			<point x="374" y="224"/>
			<point x="466" y="338"/>
			<point x="466" y="440" type="curve" smooth="yes"/>
			<point x="466" y="564"/>
			<point x="376" y="646"/>
			<point x="248" y="646" type="curve" smooth="yes"/>
			<point x="156" y="646"/>
			<point x="96" y="612"/>
			<point x="32" y="540" type="curve"/>
			<point x="120" y="452" type="line"/>
			<point x="150" y="482"/>
			<point x="182" y="512"/>
			<point x="224" y="512" type="curve" smooth="yes"/>
			<point x="265" y="512"/>
			<point x="294" y="485"/>
			<point x="294" y="428" type="curve" smooth="yes"/>
			<point x="294" y="344"/>
			<point x="181" y="230"/>
			<point x="36" y="106" type="curve"/>
		</contour>
	</outline>
</glyph>
<glyph name="eight" format="2">
	<unicode hex="0038"/>
	<advance width="540"/>
	<outline>
		<contour>
			<point x="268" y="-12" type="curve" smooth="yes"/>
			<point x="407" y="-12"/>
			<point x="500" y="64"/>
			<point x="500" y="166" type="curve" smooth="yes"/>
			<point x="500" y="250"/>
			<point x="453" y="300"/>
			<point x="391" y="333" type="curve"/>
			<point x="391" y="337" type="line"/>
			<point x="438" y="366"/>
			<point x="476" y="412"/>
			<point x="476" y="472" type="curve" smooth="yes"/>
			<point x="476" y="578"/>
			<point x="394" y="646"/>
			<point x="274" y="646" type="curve" smooth="yes"/>
			<point x="146" y="646"/>
			<point x="58" y="576"/>
			<point x="58" y="466" type="curve" smooth="yes"/>
			<point x="58" y="400"/>
			<point x="92" y="354"/>
			<point x="146" y="316" type="curve"/>
			<point x="146" y="312" type="line"/>
			<point x="86" y="280"/>
			<point x="42" y="236"/>
			<point x="42" y="162" type="curve" smooth="yes"/>
			<point x="42" y="58"/>
			<point x="139" y="-12"/>
		</contour>
		<contour>
			<point x="306" y="378" type="curve"/>
			<point x="246" y="402"/>
			<point x="212" y="424"/>
			<point x="212" y="466" type="curve" smooth="yes"/>
			<point x="212" y="510"/>
			<point x="239" y="528"/>
			<point x="270" y="528" type="curve" smooth="yes"/>
			<point x="310" y="528"/>
			<point x="334" y="502"/>
			<point x="334" y="458" type="curve" smooth="yes"/>
			<point x="334" y="430"/>
			<point x="324" y="404"/>
		</contour>
		<contour>
			<point x="272" y="106" type="curve" smooth="yes"/>
			<point x="229" y="106"/>
			<point x="190" y="132"/>
			<point x="190" y="182" type="curve" smooth="yes"/>
			<point x="190" y="214"/>
			<point x="203" y="246"/>
			<point x="222" y="268" type="curve"/>
			<point x="296" y="236"/>
			<point x="340" y="218"/>
			<point x="340" y="172" type="curve" smooth="yes"/>
			<point x="340" y="124"/>
			<point x="309" y="106"/>
		</contour>
	</outline>
</glyph>
<glyph name="E" format="2">
	<unicode hex="0045"/>
	<advance width="556"/>
	<outline>
		<contour>
			<point x="72" y="0" type="line"/>
			<point x="502" y="0" type="line"/>
			<point x="502" y="144" type="line"/>
			<point x="244" y="144" type="line"/>
			<point x="244" y="260" type="line"/>
			<point x="456" y="260" type="line"/>
			<point x="456" y="404" type="line"/>
			<point x="244" y="404" type="line"/>
			<point x="244" y="506" type="line"/>
			<point x="492" y="506" type="line"/>
			<point x="492" y="650" type="line"/>
			<point x="72" y="650" type="line"/>
		</contour>
	</outline>
	<anchor name="aboveUC" x="290" y="672"/>
	<anchor name="baseLC" x="300" y="0"/>
	<anchor name="belowLC" x="300" y="-22"/>
	<anchor name="ogonekUC" x="406" y="0"/>
</glyph>
<glyph name="F" format="2">
	<unicode hex="0046"/>
	<advance width="536"/>
	<outline>
		<contour>
			<point x="72" y="0" type="line"/>
			<point x="244" y="0" type="line"/>
			<point x="244" y="238" type="line"/>
			<point x="460" y="238" type="line"/>
			<point x="460" y="382" type="line"/>
			<point x="244" y="382" type="line"/>
			<point x="244" y="506" type="line"/>
			<point x="496" y="506" type="line"/>
			<point x="496" y="650" type="line"/>
			<point x="72" y="650" type="line"/>
		</contour>
	</outline>
	<anchor name="aboveUC" x="290" y="672"/>
	<anchor name="belowLC" x="168" y="-22"/>
</glyph>
<glyph name="c" format="2">
  <advance width="472"/>
  <unicode hex="0063"/>
  <anchor x="280" y="522" name="aboveLC"/>
  <anchor x="420" y="522" name="aboverightLC"/>
  <anchor x="260" y="0" name="baseLC"/>
  <anchor x="260" y="-22" name="belowLC"/>
  <outline>
    <contour>
      <point x="292" y="-12" type="curve" smooth="yes"/>
      <point x="356" y="-12"/>
      <point x="408" y="14"/>
      <point x="450" y="52" type="curve"/>
      <point x="384" y="154" type="line"/>
      <point x="360" y="136"/>
      <point x="334" y="126"/>
      <point x="306" y="126" type="curve" smooth="yes"/>
      <point x="250" y="126"/>
      <point x="208" y="174"/>
      <point x="208" y="250" type="curve" smooth="yes"/>
      <point x="208" y="326"/>
      <point x="248" y="374"/>
      <point x="310" y="374" type="curve" smooth="yes"/>
      <point x="334" y="374"/>
      <point x="352" y="368"/>
      <point x="368" y="356" type="curve"/>
      <point x="444" y="456" type="line"/>
      <point x="408" y="492"/>
      <point x="359" y="512"/>
      <point x="300" y="512" type="curve" smooth="yes"/>
      <point x="158" y="512"/>
      <point x="32" y="416"/>
      <point x="32" y="250" type="curve" smooth="yes"/>
      <point x="32" y="84"/>
      <point x="146" y="-12"/>
    </contour>
  </outline>
</glyph>
<glyph name="cent" format="2">
  <advance width="540"/>
  <unicode hex="00A2"/>
  <outline>
    <contour>
      <point x="280" y="-44" type="line"/>
      <point x="372" y="-44" type="line"/>
      <point x="372" y="656" type="line"/>
      <point x="280" y="656" type="line"/>
    </contour>
    <contour>
      <point x="322" y="44" type="curve" smooth="yes"/>
      <point x="394" y="44"/>
      <point x="454" y="70"/>
      <point x="500" y="112" type="curve"/>
      <point x="434" y="214" type="line"/>
      <point x="404" y="192"/>
      <point x="372" y="182"/>
      <point x="336" y="182" type="curve" smooth="yes"/>
      <point x="272" y="182"/>
      <point x="226" y="230"/>
      <point x="226" y="306" type="curve" smooth="yes"/>
      <point x="226" y="382"/>
      <point x="270" y="430"/>
      <point x="340" y="430" type="curve" smooth="yes"/>
      <point x="372" y="430"/>
      <point x="396" y="424"/>
      <point x="418" y="408" type="curve"/>
      <point x="494" y="508" type="line"/>
      <point x="454" y="548"/>
      <point x="398" y="568"/>
      <point x="330" y="568" type="curve" smooth="yes"/>
      <point x="188" y="568"/>
      <point x="62" y="472"/>
      <point x="62" y="306" type="curve" smooth="yes"/>
      <point x="62" y="140"/>
      <point x="176" y="44"/>
    </contour>
  </outline>
</glyph>
<glyph name="Fhook" format="2">
	<unicode hex="0191"/>
	<advance width="536"/>
	<outline>
		<contour>
			<point x="72" y="0" type="line"/>
			<point x="244" y="0" type="line"/>
			<point x="244" y="238" type="line"/>
			<point x="460" y="238" type="line"/>
			<point x="460" y="382" type="line"/>
			<point x="244" y="382" type="line"/>
			<point x="244" y="506" type="line"/>
			<point x="496" y="506" type="line"/>
			<point x="496" y="650" type="line"/>
			<point x="72" y="650" type="line"/>
		</contour>
		<contour>
			<point x="72" y="20" type="move"/>
			<point x="72" y="-34"/>
			<point x="58" y="-54"/>
			<point x="22" y="-54" type="curve" smooth="yes"/>
			<point x="10" y="-54"/>
			<point x="0" y="-52"/>
			<point x="-14" y="-48" type="curve"/>
			<point x="-44" y="-174" type="line"/>
			<point x="-22" y="-182"/>
			<point x="4" y="-188"/>
			<point x="50" y="-188" type="curve" smooth="yes"/>
			<point x="200" y="-188"/>
			<point x="244" y="-86"/>
			<point x="244" y="26" type="curve"/>
		</contour>
	</outline>
	<anchor name="aboveUC" x="290" y="672"/>
	<anchor name="belowLC" x="168" y="-22"/>
</glyph>
<glyph name="Khook" format="2">
	<unicode hex="0198"/>
	<advance width="628"/>
	<outline>
		<contour>
			<point x="72" y="0" type="line"/>
			<point x="244" y="0" type="line"/>
			<point x="244" y="162" type="line"/>
			<point x="306" y="250" type="line"/>
			<point x="450" y="0" type="line"/>
			<point x="638" y="0" type="line"/>
			<point x="406" y="386" type="line"/>
			<point x="600" y="650" type="line"/>
			<point x="412" y="650" type="line"/>
			<point x="248" y="408" type="line"/>
			<point x="244" y="408" type="line"/>
			<point x="244" y="650" type="line"/>
			<point x="72" y="650" type="line"/>
		</contour>
		<contour>
			<point x="460" y="452" type="move"/>
			<point x="478" y="490"/>
			<point x="494" y="502"/>
			<point x="518" y="502" type="curve" smooth="yes"/>
			<point x="532" y="502"/>
			<point x="542" y="500"/>
			<point x="548" y="498" type="curve"/>
			<point x="576" y="652" type="line"/>
			<point x="560" y="660"/>
			<point x="536" y="662"/>
			<point x="510" y="662" type="curve" smooth="yes"/>
			<point x="436" y="662"/>
			<point x="374" y="634"/>
			<point x="336" y="546" type="curve"/>
		</contour>
	</outline>
	<anchor name="aboverightUC" x="530" y="672"/>
	<anchor name="aboveUC" x="322" y="672"/>
	<anchor name="belowLC" x="334" y="-22"/>
</glyph>
<glyph name="khook" format="2">
	<unicode hex="0199"/>
	<advance width="568"/>
	<outline>
		<contour>
			<point x="58" y="0" type="line"/>
			<point x="228" y="0" type="line"/>
			<point x="228" y="122" type="line"/>
			<point x="278" y="178" type="line"/>
			<point x="378" y="0" type="line"/>
			<point x="564" y="0" type="line"/>
			<point x="378" y="290" type="line"/>
			<point x="554" y="500" type="line"/>
			<point x="366" y="500" type="line"/>
			<point x="232" y="328" type="line"/>
			<point x="228" y="328" type="line"/>
			<point x="228" y="482" type="line" smooth="yes"/>
			<point x="228" y="552"/>
			<point x="254" y="574"/>
			<point x="292" y="574" type="curve" smooth="yes"/>
			<point x="308" y="574"/>
			<point x="320" y="572"/>
			<point x="332" y="568" type="curve"/>
			<point x="362" y="694" type="line"/>
			<point x="342" y="702"/>
			<point x="308" y="708"/>
			<point x="266" y="708" type="curve" smooth="yes"/>
			<point x="112" y="708"/>
			<point x="58" y="604"/>
			<point x="58" y="486" type="curve" smooth="yes"/>
		</contour>
	</outline>
	<anchor name="aboverightLC" x="480" y="522"/>
	<anchor name="aboveUC" x="320" y="722"/>
	<anchor name="belowLC" x="300" y="-22"/>
</glyph>
<glyph name="Nhookleft" format="2">
	<unicode hex="019D"/>
	<advance width="672"/>
	<outline>
		<contour>
			<point x="72" y="0" type="line"/>
			<point x="236" y="0" type="line"/>
			<point x="236" y="188" type="line" smooth="yes"/>
			<point x="236" y="268"/>
			<point x="222" y="362"/>
			<point x="214" y="436" type="curve"/>
			<point x="218" y="436" type="line"/>
			<point x="238" y="386"/>
			<point x="258" y="334"/>
			<point x="280" y="290" type="curve" smooth="yes"/>
			<point x="424" y="0" type="line"/>
			<point x="600" y="0" type="line"/>
			<point x="600" y="650" type="line"/>
			<point x="436" y="650" type="line"/>
			<point x="436" y="462" type="line" smooth="yes"/>
			<point x="436" y="382"/>
			<point x="450" y="284"/>
			<point x="458" y="214" type="curve"/>
			<point x="454" y="214" type="line"/>
			<point x="434" y="264"/>
			<point x="414" y="316"/>
			<point x="392" y="360" type="curve" smooth="yes"/>
			<point x="248" y="650" type="line"/>
			<point x="72" y="650" type="line"/>
		</contour>
		<contour>
			<point x="72" y="20" type="move"/>
			<point x="72" y="-34"/>
			<point x="58" y="-54"/>
			<point x="22" y="-54" type="curve" smooth="yes"/>
			<point x="10" y="-54"/>
			<point x="0" y="-52"/>
			<point x="-14" y="-48" type="curve"/>
			<point x="-44" y="-174" type="line"/>
			<point x="-22" y="-182"/>
			<point x="4" y="-188"/>
			<point x="50" y="-188" type="curve" smooth="yes"/>
			<point x="200" y="-188"/>
			<point x="244" y="-86"/>
			<point x="244" y="26" type="curve"/>
		</contour>
	</outline>
	<anchor name="aboveUC" x="340" y="672"/>
	<anchor name="belowLC" x="350" y="-22"/>
</glyph>
<glyph name="Vhook" format="2">
	<unicode hex="01B2"/>
	<advance width="560"/>
	<outline>
		<contour>
			<point x="328" y="-12" type="curve" smooth="yes"/>
			<point x="522" y="-12"/>
			<point x="621" y="142"/>
			<point x="621" y="382" type="curve" smooth="yes"/>
			<point x="621" y="582"/>
			<point x="540" y="666"/>
			<point x="438" y="666" type="curve" smooth="yes"/>
			<point x="396" y="666"/>
			<point x="370" y="663"/>
			<point x="345" y="655" type="curve"/>
			<point x="368" y="492" type="line"/>
			<point x="375" y="494"/>
			<point x="381" y="495"/>
			<point x="389" y="495" type="curve" smooth="yes"/>
			<point x="428" y="495"/>
			<point x="443" y="452"/>
			<point x="443" y="348" type="curve" smooth="yes"/>
			<point x="443" y="211"/>
			<point x="405" y="136"/>
			<point x="338" y="136" type="curve" smooth="yes"/>
			<point x="271" y="136"/>
			<point x="240" y="187"/>
			<point x="240" y="292" type="curve" smooth="yes"/>
			<point x="240" y="650" type="line"/>
			<point x="68" y="650" type="line"/>
			<point x="68" y="291" type="line" smooth="yes"/>
			<point x="68" y="94"/>
			<point x="166" y="-12"/>
		</contour>
		<component base="U"/>
	</outline>
	<anchor name="aboveUC" x="290" y="522"/>
	<anchor name="belowLC" x="280" y="-22"/>
</glyph>
<glyph name="Yhook" format="2">
	<unicode hex="01B3"/>
	<advance width="544"/>
	<outline>
		<contour>
			<point x="186" y="0" type="line"/>
			<point x="358" y="0" type="line"/>
			<point x="358" y="224" type="line"/>
			<point x="554" y="650" type="line"/>
			<point x="374" y="650" type="line"/>
			<point x="326" y="514" type="line"/>
			<point x="309" y="465"/>
			<point x="292" y="420"/>
			<point x="275" y="369" type="curve"/>
			<point x="271" y="369" type="line"/>
			<point x="254" y="420"/>
			<point x="238" y="465"/>
			<point x="222" y="514" type="curve"/>
			<point x="174" y="650" type="line"/>
			<point x="-10" y="650" type="line"/>
			<point x="186" y="224" type="line"/>
		</contour>
		<contour>
			<point x="460" y="452" type="move"/>
			<point x="478" y="490"/>
			<point x="494" y="502"/>
			<point x="518" y="502" type="curve" smooth="yes"/>
			<point x="532" y="502"/>
			<point x="542" y="500"/>
			<point x="548" y="498" type="curve"/>
			<point x="576" y="652" type="line"/>
			<point x="560" y="660"/>
			<point x="536" y="662"/>
			<point x="510" y="662" type="curve" smooth="yes"/>
			<point x="436" y="662"/>
			<point x="374" y="634"/>
			<point x="336" y="546" type="curve"/>
		</contour>
	</outline>
	<anchor name="aboverightUC" x="500" y="672"/>
	<anchor name="aboveUC" x="270" y="672"/>
	<anchor name="belowLC" x="270" y="-22"/>
</glyph>
<glyph name="wynn" format="2">
	<unicode hex="01BF"/>
	<advance width="580"/>
	<outline>
		<contour>
			<point x="58" y="-176" type="line"/>
			<point x="230" y="-176" type="line"/>
			<point x="230" y="-82" type="line"/>
			<point x="226" y="-12" type="line"/>
			<point x="445" y="46"/>
			<point x="544" y="174"/>
			<point x="544" y="338" type="curve" smooth="yes"/>
			<point x="544" y="444"/>
			<point x="468" y="512"/>
			<point x="372" y="512" type="curve" smooth="yes"/>
			<point x="298" y="512"/>
			<point x="254" y="476"/>
			<point x="214" y="436" type="curve"/>
			<point x="210" y="436" type="line"/>
			<point x="198" y="500" type="line"/>
			<point x="58" y="500" type="line"/>
		</contour>
		<contour>
			<point x="230" y="128" type="curve"/>
			<point x="230" y="306" type="line"/>
			<point x="260" y="352"/>
			<point x="286" y="372"/>
			<point x="314" y="372" type="curve" smooth="yes"/>
			<point x="346" y="372"/>
			<point x="368" y="352"/>
			<point x="368" y="304" type="curve" smooth="yes"/>
			<point x="368" y="231"/>
			<point x="315" y="162"/>
		</contour>
	</outline>
	<anchor name="aboveLC" x="320" y="522"/>
	<anchor name="belowLC" x="150" y="-182"/>
</glyph>
<glyph name="clickalveolar" format="2">
	<unicode hex="01C2"/>
	<advance width="490"/>
	<outline>
		<contour>
			<point x="28" y="198" type="line"/>
			<point x="462" y="198" type="line"/>
			<point x="462" y="310" type="line"/>
			<point x="104" y="310" type="line"/>
			<point x="28" y="304" type="line"/>
		</contour>
		<contour>
			<point x="28" y="382" type="line"/>
			<point x="462" y="382" type="line"/>
			<point x="462" y="494" type="line"/>
			<point x="104" y="494" type="line"/>
			<point x="28" y="488" type="line"/>
		</contour>
		<component base="l.a" xOffset="104"/>
	</outline>
	<anchor name="aboveUC" x="242" y="722"/>
	<anchor name="belowLC" x="242" y="-22"/>
</glyph>
<glyph name="Astroke" format="2">
	<unicode hex="023A"/>
	<advance width="584"/>
	<outline>
		<contour>
			<point x="236" y="-66" type="line"/>
			<point x="396" y="706" type="line"/>
			<point x="350" y="716" type="line"/>
			<point x="190" y="-56" type="line"/>
		</contour>
		<component base="A"/>
	</outline>
	<anchor name="aboveUC" x="290" y="672"/>
	<anchor name="belowLC" x="290" y="-22"/>
	<guideline x="243" y="-46" angle="0" identifier="2fvMakXKCW"/>
</glyph>
<glyph name="cstroke" format="2">
	<unicode hex="023C"/>
	<advance width="472"/>
	<outline>
		<contour>
			<point x="246" y="-66" type="line"/>
			<point x="378" y="568" type="line"/>
			<point x="332" y="578" type="line"/>
			<point x="200" y="-56" type="line"/>
		</contour>
		<component base="c"/>
	</outline>
	<anchor name="aboveLC" x="280" y="522"/>
	<anchor name="belowLC" x="260" y="-22"/>
</glyph>
<glyph name="dtail" format="2">
	<unicode hex="0256"/>
	<advance width="580"/>
	<outline>
		<contour>
			<point x="534" y="-188" type="curve" smooth="yes"/>
			<point x="575" y="-188"/>
			<point x="598" y="-182"/>
			<point x="618" y="-174" type="curve"/>
			<point x="588" y="-48" type="line"/>
			<point x="578" y="-52"/>
			<point x="571" y="-54"/>
			<point x="562" y="-54" type="curve" smooth="yes"/>
			<point x="534" y="-54"/>
			<point x="522" y="-36"/>
			<point x="522" y="10" type="curve" smooth="yes"/>
			<point x="522" y="708" type="line"/>
			<point x="350" y="708" type="line"/>
			<point x="350" y="534" type="line"/>
			<point x="356" y="462" type="line"/>
			<point x="326" y="492"/>
			<point x="294" y="512"/>
			<point x="240" y="512" type="curve" smooth="yes"/>
			<point x="138" y="512"/>
			<point x="36" y="414"/>
			<point x="36" y="250" type="curve" smooth="yes"/>
			<point x="36" y="88"/>
			<point x="116" y="-12"/>
			<point x="240" y="-12" type="curve" smooth="yes"/>
			<point x="282" y="-12"/>
			<point x="324" y="8"/>
			<point x="356" y="38" type="curve"/>
			<point x="356" y="-32" type="line" smooth="yes"/>
			<point x="356" y="-110"/>
			<point x="412" y="-188"/>
		</contour>
		<contour>
			<point x="286" y="128" type="curve" smooth="yes"/>
			<point x="240" y="128"/>
			<point x="212" y="162"/>
			<point x="212" y="252" type="curve" smooth="yes"/>
			<point x="212" y="340"/>
			<point x="246" y="372"/>
			<point x="282" y="372" type="curve" smooth="yes"/>
			<point x="304" y="372"/>
			<point x="330" y="366"/>
			<point x="350" y="348" type="curve"/>
			<point x="350" y="164" type="line"/>
			<point x="332" y="136"/>
			<point x="312" y="128"/>
		</contour>
	</outline>
	<anchor name="aboveUC" x="280" y="722"/>
	<anchor name="belowLC" x="290" y="-182"/>
</glyph>
<glyph name="yturned" format="2">
	<unicode hex="028E"/>
	<advance width="542"/>
	<outline>
		<contour>
			<point x="12" y="0" type="line"/>
			<point x="176" y="0" type="line"/>
			<point x="226" y="192" type="line" smooth="yes"/>
			<point x="238" y="240"/>
			<point x="248" y="286"/>
			<point x="258" y="334" type="curve"/>
			<point x="262" y="334" type="line"/>
			<point x="274" y="284"/>
			<point x="284" y="238"/>
			<point x="298" y="192" type="curve" smooth="yes"/>
			<point x="358" y="0" type="line"/>
			<point x="530" y="0" type="line"/>
			<point x="340" y="482" type="line"/>
			<point x="354" y="524" type="line" smooth="yes"/>
			<point x="364" y="554"/>
			<point x="386" y="574"/>
			<point x="432" y="574" type="curve" smooth="yes"/>
			<point x="442" y="574"/>
			<point x="455" y="570"/>
			<point x="464" y="568" type="curve"/>
			<point x="494" y="698" type="line"/>
			<point x="472" y="704"/>
			<point x="452" y="708"/>
			<point x="418" y="708" type="curve" smooth="yes"/>
			<point x="294" y="708"/>
			<point x="240" y="647"/>
			<point x="188" y="512" type="curve"/>
		</contour>
	</outline>
	<anchor name="aboveUC" x="300" y="722"/>
	<anchor name="belowLC" x="270" y="-22"/>
</glyph>
<glyph name="zcurl" format="2">
	<unicode hex="0291"/>
	<advance width="544"/>
	<outline>
		<contour>
			<point x="324" y="-82" type="line"/>
			<point x="360" y="108"/>
			<point x="394" y="182"/>
			<point x="430" y="182" type="curve" smooth="yes"/>
			<point x="442" y="182"/>
			<point x="450" y="176"/>
			<point x="450" y="160" type="curve" smooth="yes"/>
			<point x="450" y="141"/>
			<point x="434" y="124"/>
			<point x="399" y="124" type="curve" smooth="yes"/>
			<point x="346" y="124"/>
			<point x="296" y="126"/>
			<point x="242" y="134" type="curve"/>
			<point x="432" y="408" type="line"/>
			<point x="432" y="500" type="line"/>
			<point x="62" y="500" type="line"/>
			<point x="62" y="366" type="line"/>
			<point x="230" y="366" type="line"/>
			<point x="40" y="92" type="line"/>
			<point x="40" y="0" type="line"/>
			<point x="144" y="-8"/>
			<point x="249" y="-12"/>
			<point x="352" y="-12" type="curve" smooth="yes"/>
			<point x="493" y="-12"/>
			<point x="552" y="66"/>
			<point x="552" y="160" type="curve" smooth="yes"/>
			<point x="552" y="228"/>
			<point x="509" y="270"/>
			<point x="442" y="270" type="curve" smooth="yes"/>
			<point x="320" y="270"/>
			<point x="272" y="120"/>
			<point x="234" y="-66" type="curve"/>
		</contour>
	</outline>
	<anchor name="aboveLC" x="252" y="522"/>
	<anchor name="belowLC" x="280" y="-102"/>
</glyph>
<glyph name="ts" format="2">
	<unicode hex="02A6"/>
	<advance width="752"/>
	<outline>
		<contour>
			<point x="412" y="-12" type="curve" smooth="yes"/>
			<point x="658" y="-12"/>
			<point x="726" y="60"/>
			<point x="726" y="154" type="curve" smooth="yes"/>
			<point x="726" y="244"/>
			<point x="658" y="282"/>
			<point x="598" y="304" type="curve" smooth="yes"/>
			<point x="548" y="322"/>
			<point x="506" y="332"/>
			<point x="506" y="358" type="curve" smooth="yes"/>
			<point x="506" y="378"/>
			<point x="521" y="386"/>
			<point x="550" y="386" type="curve" smooth="yes"/>
			<point x="582" y="386"/>
			<point x="619" y="377"/>
			<point x="656" y="350" type="curve"/>
			<point x="728" y="446" type="line"/>
			<point x="684" y="484"/>
			<point x="620" y="512"/>
			<point x="544" y="512" type="curve" smooth="yes"/>
			<point x="426" y="512"/>
			<point x="346" y="448"/>
			<point x="346" y="350" type="curve" smooth="yes"/>
			<point x="346" y="268"/>
			<point x="412" y="225"/>
			<point x="470" y="202" type="curve" smooth="yes"/>
			<point x="520" y="182"/>
			<point x="566" y="170"/>
			<point x="566" y="144" type="curve" smooth="yes"/>
			<point x="566" y="124"/>
			<point x="534" y="114"/>
			<point x="416" y="114" type="curve" smooth="yes"/>
			<point x="308" y="114"/>
			<point x="252" y="158"/>
			<point x="252" y="216" type="curve" smooth="yes"/>
			<point x="252" y="366" type="line"/>
			<point x="366" y="366" type="line"/>
			<point x="486" y="500" type="line"/>
			<point x="252" y="500" type="line"/>
			<point x="252" y="650" type="line"/>
			<point x="110" y="650" type="line"/>
			<point x="90" y="500" type="line"/>
			<point x="14" y="494" type="line"/>
			<point x="14" y="366" type="line"/>
			<point x="80" y="366" type="line"/>
			<point x="80" y="212" type="line" smooth="yes"/>
			<point x="80" y="98"/>
			<point x="138" y="-12"/>
		</contour>
	</outline>
	<anchor name="aboveLC" x="420" y="662"/>
	<anchor name="belowLC" x="380" y="-22"/>
</glyph>
<glyph name="hhook.sups" format="2">
	<unicode hex="02B1"/>
	<advance width="391"/>
	<outline>
		<contour>
			<point x="38" y="368" type="line"/>
			<point x="158" y="368" type="line"/>
			<point x="158" y="583" type="line"/>
			<point x="174" y="598"/>
			<point x="186" y="608"/>
			<point x="204" y="608" type="curve" smooth="yes"/>
			<point x="232" y="608"/>
			<point x="236" y="592"/>
			<point x="236" y="556" type="curve" smooth="yes"/>
			<point x="236" y="368" type="line"/>
			<point x="356" y="368" type="line"/>
			<point x="356" y="570" type="line" smooth="yes"/>
			<point x="356" y="654"/>
			<point x="326" y="708"/>
			<point x="251" y="708" type="curve" smooth="yes"/>
			<point x="206" y="708"/>
			<point x="172" y="684"/>
			<point x="150" y="662" type="curve"/>
			<point x="156" y="712" type="line" smooth="yes"/>
			<point x="160" y="742"/>
			<point x="174" y="752"/>
			<point x="202" y="752" type="curve" smooth="yes"/>
			<point x="214" y="752"/>
			<point x="226" y="750"/>
			<point x="234" y="748" type="curve"/>
			<point x="256" y="832" type="line"/>
			<point x="240" y="838"/>
			<point x="214" y="844"/>
			<point x="184" y="844" type="curve" smooth="yes"/>
			<point x="75" y="844"/>
			<point x="38" y="774"/>
			<point x="38" y="700" type="curve" smooth="yes"/>
		</contour>
	</outline>
</glyph>
<glyph name="glottalstopmod" format="2">
	<unicode hex="02C0"/>
	<advance width="360"/>
	<outline>
		<contour>
			<point x="104" y="368" type="line"/>
			<point x="224" y="368" type="line"/>
			<point x="224" y="432" type="line"/>
			<point x="286" y="458"/>
			<point x="328" y="502"/>
			<point x="328" y="568" type="curve" smooth="yes"/>
			<point x="328" y="657"/>
			<point x="262" y="708"/>
			<point x="164" y="708" type="curve" smooth="yes"/>
			<point x="102" y="708"/>
			<point x="52" y="680"/>
			<point x="20" y="644" type="curve"/>
			<point x="80" y="578" type="line"/>
			<point x="101" y="599"/>
			<point x="126" y="612"/>
			<point x="154" y="612" type="curve" smooth="yes"/>
			<point x="188" y="612"/>
			<point x="208" y="594"/>
			<point x="208" y="566" type="curve" smooth="yes"/>
			<point x="208" y="528"/>
			<point x="184" y="504"/>
			<point x="104" y="476" type="curve"/>
		</contour>
	</outline>
</glyph>
<glyph name="s.sups" format="2">
	<unicode hex="02E2"/>
	<advance width="302"/>
	<outline>
		<contour>
			<point x="143" y="360" type="curve" smooth="yes"/>
			<point x="238" y="360"/>
			<point x="288" y="408"/>
			<point x="288" y="471" type="curve" smooth="yes"/>
			<point x="288" y="530"/>
			<point x="242" y="556"/>
			<point x="204" y="570" type="curve" smooth="yes"/>
			<point x="172" y="582"/>
			<point x="140" y="588"/>
			<point x="140" y="604" type="curve" smooth="yes"/>
			<point x="140" y="616"/>
			<point x="150" y="622"/>
			<point x="168" y="622" type="curve" smooth="yes"/>
			<point x="188" y="622"/>
			<point x="212" y="610"/>
			<point x="236" y="594" type="curve"/>
			<point x="288" y="664" type="line"/>
			<point x="258" y="686"/>
			<point x="220" y="708"/>
			<point x="164" y="708" type="curve" smooth="yes"/>
			<point x="84" y="708"/>
			<point x="30" y="664"/>
			<point x="30" y="599" type="curve" smooth="yes"/>
			<point x="30" y="544"/>
			<point x="74" y="516"/>
			<point x="114" y="500" type="curve" smooth="yes"/>
			<point x="148" y="486"/>
			<point x="178" y="480"/>
			<point x="178" y="464" type="curve" smooth="yes"/>
			<point x="178" y="452"/>
			<point x="168" y="446"/>
			<point x="146" y="446" type="curve" smooth="yes"/>
			<point x="124" y="446"/>
			<point x="96" y="456"/>
			<point x="64" y="478" type="curve"/>
			<point x="14" y="404" type="line"/>
			<point x="49" y="378"/>
			<point x="100" y="360"/>
		</contour>
	</outline>
</glyph>
<glyph name="lowlinecmb" format="2">
	<unicode hex="0332"/>
	<outline>
		<contour>
			<point x="-280" y="-172" type="line"/>
			<point x="280" y="-172" type="line"/>
			<point x="280" y="-64" type="line"/>
			<point x="-280" y="-64" type="line"/>
		</contour>
	</outline>
	<anchor name="_belowLC" x="0" y="-22"/>
</glyph>
<glyph name="brevedoublebelowcmb" format="2">
	<unicode hex="035C"/>
	<outline>
		<contour>
			<point x="0" y="-230" type="curve" smooth="yes"/>
			<point x="156" y="-230"/>
			<point x="320" y="-192"/>
			<point x="458" y="-108" type="curve"/>
			<point x="414" y="-30" type="line"/>
			<point x="284" y="-102"/>
			<point x="118" y="-122"/>
			<point x="0" y="-122" type="curve" smooth="yes"/>
			<point x="-118" y="-122"/>
			<point x="-284" y="-102"/>
			<point x="-414" y="-30" type="curve"/>
			<point x="-458" y="-108" type="line"/>
			<point x="-320" y="-192"/>
			<point x="-156" y="-230"/>
		</contour>
	</outline>
</glyph>
<glyph name="Lambda" format="2">
	<unicode hex="039B"/>
	<advance width="572"/>
	<outline>
		<contour>
			<point x="-10" y="0" type="line"/>
			<point x="166" y="0" type="line"/>
			<point x="232" y="284" type="line" smooth="yes"/>
			<point x="249" y="353"/>
			<point x="262" y="420"/>
			<point x="280" y="490" type="curve"/>
			<point x="284" y="490" type="line"/>
			<point x="302" y="420"/>
			<point x="314" y="353"/>
			<point x="332" y="284" type="curve" smooth="yes"/>
			<point x="400" y="0" type="line"/>
			<point x="582" y="0" type="line"/>
			<point x="390" y="650" type="line"/>
			<point x="182" y="650" type="line"/>
		</contour>
	</outline>
</glyph>
<glyph name="epsilon" format="2">
	<unicode hex="03B5"/>
	<advance width="480"/>
	<outline>
		<contour>
			<point x="274" y="-12" type="curve" smooth="yes"/>
			<point x="335" y="-12"/>
			<point x="394" y="-2"/>
			<point x="460" y="44" type="curve"/>
			<point x="394" y="152" type="line"/>
			<point x="358" y="126"/>
			<point x="316" y="118"/>
			<point x="290" y="118" type="curve" smooth="yes"/>
			<point x="230" y="118"/>
			<point x="200" y="134"/>
			<point x="200" y="162" type="curve" smooth="yes"/>
			<point x="200" y="190"/>
			<point x="222" y="198"/>
			<point x="274" y="198" type="curve" smooth="yes"/>
			<point x="297" y="198"/>
			<point x="325" y="196"/>
			<point x="348" y="194" type="curve"/>
			<point x="348" y="314" type="line"/>
			<point x="325" y="312"/>
			<point x="296" y="310"/>
			<point x="274" y="310" type="curve" smooth="yes"/>
			<point x="244" y="310"/>
			<point x="222" y="318"/>
			<point x="222" y="344" type="curve" smooth="yes"/>
			<point x="222" y="366"/>
			<point x="242" y="382"/>
			<point x="286" y="382" type="curve" smooth="yes"/>
			<point x="320" y="382"/>
			<point x="358" y="372"/>
			<point x="390" y="352" type="curve"/>
			<point x="452" y="462" type="line"/>
			<point x="402" y="494"/>
			<point x="336" y="512"/>
			<point x="276" y="512" type="curve" smooth="yes"/>
			<point x="160" y="512"/>
			<point x="56" y="468"/>
			<point x="56" y="366" type="curve" smooth="yes"/>
			<point x="56" y="328"/>
			<point x="80" y="282"/>
			<point x="136" y="266" type="curve"/>
			<point x="136" y="262" type="line"/>
			<point x="74" y="246"/>
			<point x="34" y="206"/>
			<point x="34" y="134" type="curve" smooth="yes"/>
			<point x="34" y="38"/>
			<point x="145" y="-12"/>
		</contour>
	</outline>
	<anchor name="aboveLC" x="270" y="522"/>
	<anchor name="belowLC" x="240" y="-22"/>
</glyph>
<glyph name="rho" format="2">
	<unicode hex="03C1"/>
	<advance width="576"/>
	<outline>
		<contour>
			<point x="54" y="-176" type="line"/>
			<point x="228" y="-176" type="line"/>
			<point x="224" y="-108"/>
			<point x="220" y="-34"/>
			<point x="216" y="38" type="curve"/>
			<point x="248" y="0"/>
			<point x="294" y="-12"/>
			<point x="332" y="-12" type="curve" smooth="yes"/>
			<point x="438" y="-12"/>
			<point x="540" y="86"/>
			<point x="540" y="258" type="curve" smooth="yes"/>
			<point x="540" y="420"/>
			<point x="448" y="512"/>
			<point x="300" y="512" type="curve" smooth="yes"/>
			<point x="158" y="512"/>
			<point x="54" y="428"/>
			<point x="54" y="233" type="curve" smooth="yes"/>
		</contour>
		<contour>
			<point x="290" y="128" type="curve" smooth="yes"/>
			<point x="265" y="128"/>
			<point x="240" y="134"/>
			<point x="216" y="158" type="curve"/>
			<point x="216" y="252" type="line" smooth="yes"/>
			<point x="216" y="322"/>
			<point x="246" y="372"/>
			<point x="294" y="372" type="curve" smooth="yes"/>
			<point x="340" y="372"/>
			<point x="364" y="338"/>
			<point x="364" y="256" type="curve" smooth="yes"/>
			<point x="364" y="160"/>
			<point x="330" y="128"/>
		</contour>
	</outline>
	<anchor name="aboveLC" x="300" y="522"/>
	<anchor name="belowLC" x="150" y="-182"/>
</glyph>
<glyph name="Zhe" format="2">
	<unicode hex="0416"/>
	<advance width="892"/>
	<outline>
		<contour>
			<point x="0" y="0" type="line"/>
			<point x="184" y="0" type="line"/>
			<point x="308" y="264" type="line"/>
			<point x="364" y="264" type="line"/>
			<point x="364" y="0" type="line"/>
			<point x="528" y="0" type="line"/>
			<point x="528" y="264" type="line"/>
			<point x="584" y="264" type="line"/>
			<point x="708" y="0" type="line"/>
			<point x="892" y="0" type="line"/>
			<point x="710" y="342" type="line"/>
			<point x="758" y="452" type="line" smooth="yes"/>
			<point x="774" y="490"/>
			<point x="792" y="502"/>
			<point x="816" y="502" type="curve" smooth="yes"/>
			<point x="824" y="502"/>
			<point x="832" y="500"/>
			<point x="836" y="498" type="curve"/>
			<point x="864" y="652" type="line"/>
			<point x="850" y="658"/>
			<point x="826" y="662"/>
			<point x="804" y="662" type="curve" smooth="yes"/>
			<point x="728" y="662"/>
			<point x="666" y="634"/>
			<point x="632" y="546" type="curve" smooth="yes"/>
			<point x="576" y="402" type="line"/>
			<point x="528" y="402" type="line"/>
			<point x="528" y="650" type="line"/>
			<point x="364" y="650" type="line"/>
			<point x="364" y="402" type="line"/>
			<point x="316" y="402" type="line"/>
			<point x="260" y="546" type="line" smooth="yes"/>
			<point x="226" y="634"/>
			<point x="164" y="662"/>
			<point x="88" y="662" type="curve" smooth="yes"/>
			<point x="66" y="662"/>
			<point x="42" y="658"/>
			<point x="28" y="652" type="curve"/>
			<point x="56" y="498" type="line"/>
			<point x="60" y="500"/>
			<point x="68" y="502"/>
			<point x="76" y="502" type="curve" smooth="yes"/>
			<point x="100" y="502"/>
			<point x="118" y="490"/>
			<point x="134" y="452" type="curve" smooth="yes"/>
			<point x="182" y="342" type="line"/>
		</contour>
	</outline>
	<anchor name="aboveUC" x="446" y="672"/>
</glyph>
<glyph name="Tse" format="2">
	<unicode hex="0426"/>
	<advance width="680"/>
	<outline>
		<contour>
			<point x="504" y="-188" type="line"/>
			<point x="658" y="-188" type="line"/>
			<point x="672" y="36" type="line"/>
			<point x="672" y="144" type="line"/>
			<point x="590" y="144" type="line"/>
			<point x="590" y="650" type="line"/>
			<point x="418" y="650" type="line"/>
			<point x="418" y="144" type="line"/>
			<point x="244" y="144" type="line"/>
			<point x="244" y="650" type="line"/>
			<point x="72" y="650" type="line"/>
			<point x="72" y="0" type="line"/>
			<point x="504" y="0" type="line"/>
		</contour>
	</outline>
	<anchor name="aboveUC" x="330" y="672"/>
</glyph>
<glyph name="Shcha" format="2">
	<unicode hex="0429"/>
	<advance width="946"/>
	<outline>
		<contour>
			<point x="770" y="-188" type="line"/>
			<point x="924" y="-188" type="line"/>
			<point x="938" y="36" type="line"/>
			<point x="938" y="144" type="line"/>
			<point x="746" y="144" type="line"/>
			<point x="746" y="0" type="line"/>
			<point x="770" y="0" type="line"/>
		</contour>
		<component base="Sha"/>
	</outline>
</glyph>
<glyph name="mhook.sups" format="2">
	<unicode hex="1DAC"/>
	<advance width="584"/>
	<outline>
		<contour>
			<point x="418" y="236" type="curve" smooth="yes"/>
			<point x="520" y="236"/>
			<point x="550" y="306"/>
			<point x="550" y="380" type="curve" smooth="yes"/>
			<point x="550" y="570" type="line" smooth="yes"/>
			<point x="550" y="654"/>
			<point x="516" y="708"/>
			<point x="442" y="708" type="curve" smooth="yes"/>
			<point x="396" y="708"/>
			<point x="366" y="682"/>
			<point x="339" y="654" type="curve"/>
			<point x="320" y="688"/>
			<point x="291" y="708"/>
			<point x="246" y="708" type="curve" smooth="yes"/>
			<point x="200" y="708"/>
			<point x="172" y="684"/>
			<point x="146" y="658" type="curve"/>
			<point x="144" y="658" type="line"/>
			<point x="135" y="700" type="line"/>
			<point x="38" y="700" type="line"/>
			<point x="38" y="368" type="line"/>
			<point x="158" y="368" type="line"/>
			<point x="158" y="584" type="line"/>
			<point x="174" y="600"/>
			<point x="188" y="608"/>
			<point x="200" y="608" type="curve" smooth="yes"/>
			<point x="226" y="608"/>
			<point x="234" y="592"/>
			<point x="234" y="556" type="curve" smooth="yes"/>
			<point x="234" y="368" type="line"/>
			<point x="354" y="368" type="line"/>
			<point x="354" y="584" type="line"/>
			<point x="370" y="600"/>
			<point x="384" y="608"/>
			<point x="396" y="608" type="curve" smooth="yes"/>
			<point x="422" y="608"/>
			<point x="430" y="592"/>
			<point x="430" y="556" type="curve" smooth="yes"/>
			<point x="430" y="376" type="line" smooth="yes"/>
			<point x="430" y="340"/>
			<point x="423" y="328"/>
			<point x="400" y="328" type="curve" smooth="yes"/>
			<point x="389" y="328"/>
			<point x="380" y="330"/>
			<point x="374" y="332" type="curve"/>
			<point x="354" y="244" type="line"/>
			<point x="368" y="240"/>
			<point x="386" y="236"/>
		</contour>
	</outline>
</glyph>
<glyph name="primereversed" format="2">
	<unicode hex="2035"/>
	<advance width="320"/>
	<outline>
		<contour>
			<point x="126" y="364" type="line"/>
			<point x="238" y="364" type="line"/>
			<point x="220" y="684" type="line"/>
			<point x="48" y="684" type="line"/>
			<point x="74" y="544" type="line"/>
		</contour>
	</outline>
</glyph>
<glyph name="plus.subs" format="2">
	<unicode hex="208A"/>
	<advance width="380"/>
	<outline>
		<contour>
			<point x="140" y="-165" type="line"/>
			<point x="240" y="-165" type="line"/>
			<point x="240" y="-40" type="line"/>
			<point x="356" y="-40" type="line"/>
			<point x="356" y="56" type="line"/>
			<point x="240" y="56" type="line"/>
			<point x="240" y="180" type="line"/>
			<point x="140" y="180" type="line"/>
			<point x="140" y="56" type="line"/>
			<point x="24" y="56" type="line"/>
			<point x="24" y="-40" type="line"/>
			<point x="140" y="-40" type="line"/>
		</contour>
	</outline>
</glyph>
<glyph name="ruble" format="2">
  <advance width="540"/>
  <unicode hex="20BD"/>
  <outline>
    <contour>
      <point x="106" y="0" type="line"/>
      <point x="278" y="0" type="line"/>
      <point x="278" y="262" type="line"/>
      <point x="302" y="262" type="line" smooth="yes"/>
      <point x="413" y="262"/>
      <point x="518" y="317"/>
      <point x="518" y="456" type="curve" smooth="yes"/>
      <point x="518" y="580"/>
      <point x="419" y="634"/>
      <point x="302" y="634" type="curve" smooth="yes"/>
      <point x="106" y="634" type="line"/>
    </contour>
    <contour>
      <point x="278" y="346" type="line"/>
      <point x="278" y="502" type="line"/>
      <point x="298" y="502" type="line" smooth="yes"/>
      <point x="335" y="502"/>
      <point x="360" y="480"/>
      <point x="360" y="432" type="curve" smooth="yes"/>
      <point x="360" y="383"/>
      <point x="335" y="346"/>
      <point x="298" y="346" type="curve" smooth="yes"/>
    </contour>
    <contour>
      <point x="28" y="134" type="line"/>
      <point x="450" y="134" type="line"/>
      <point x="450" y="218" type="line"/>
      <point x="106" y="218" type="line"/>
      <point x="28" y="212" type="line"/>
    </contour>
    <contour>
      <point x="28" y="262" type="line"/>
      <point x="170" y="262" type="line"/>
      <point x="170" y="346" type="line"/>
      <point x="106" y="346" type="line"/>
      <point x="28" y="340" type="line"/>
    </contour>
  </outline>
</glyph>
<glyph name="arrowboth" format="2">
	<unicode hex="2194"/>
	<advance width="616"/>
	<outline>
		<contour>
			<point x="620" y="254" type="line"/>
			<point x="440" y="482" type="line"/>
			<point x="350" y="414" type="line"/>
			<point x="428" y="320" type="line"/>
			<point x="188" y="320" type="line"/>
			<point x="266" y="414" type="line"/>
			<point x="176" y="482" type="line"/>
			<point x="-4" y="254" type="line"/>
			<point x="-4" y="250" type="line"/>
			<point x="176" y="22" type="line"/>
			<point x="266" y="90" type="line"/>
			<point x="188" y="184" type="line"/>
			<point x="428" y="184" type="line"/>
			<point x="350" y="90" type="line"/>
			<point x="440" y="22" type="line"/>
			<point x="620" y="250" type="line"/>
		</contour>
	</outline>
</glyph>
<glyph name="notexistential" format="2">
	<unicode hex="2204"/>
	<advance width="556"/>
	<outline>
		<contour>
			<point x="126" y="-66" type="line"/>
			<point x="326" y="706" type="line"/>
			<point x="280" y="716" type="line"/>
			<point x="80" y="-56" type="line"/>
		</contour>
		<component base="existential"/>
	</outline>
</glyph>
<glyph name="intersection" format="2">
	<unicode hex="2229"/>
	<advance width="540"/>
	<outline>
		<contour>
			<point x="34" y="90" type="line"/>
			<point x="158" y="90" type="line"/>
			<point x="158" y="332" type="line" smooth="yes"/>
			<point x="158" y="416"/>
			<point x="202" y="462"/>
			<point x="270" y="462" type="curve" smooth="yes"/>
			<point x="338" y="462"/>
			<point x="382" y="416"/>
			<point x="382" y="332" type="curve" smooth="yes"/>
			<point x="382" y="90" type="line"/>
			<point x="506" y="90" type="line"/>
			<point x="506" y="344" type="line" smooth="yes"/>
			<point x="506" y="489"/>
			<point x="406" y="584"/>
			<point x="270" y="584" type="curve" smooth="yes"/>
			<point x="134" y="584"/>
			<point x="34" y="489"/>
			<point x="34" y="344" type="curve" smooth="yes"/>
		</contour>
	</outline>
</glyph>
<glyph name="integral" format="2">
	<unicode hex="222B"/>
	<advance width="412"/>
	<outline>
		<contour>
			<point x="99" y="-158" type="curve" smooth="yes"/>
			<point x="272" y="-158"/>
			<point x="306" y="-49"/>
			<point x="306" y="96" type="curve" smooth="yes"/>
			<point x="306" y="268"/>
			<point x="270" y="386"/>
			<point x="270" y="542" type="curve" smooth="yes"/>
			<point x="270" y="632"/>
			<point x="282" y="664"/>
			<point x="332" y="664" type="curve" smooth="yes"/>
			<point x="346" y="664"/>
			<point x="358" y="663"/>
			<point x="368" y="660" type="curve"/>
			<point x="384" y="784" type="line"/>
			<point x="372" y="787"/>
			<point x="348" y="792"/>
			<point x="323" y="792" type="curve" smooth="yes"/>
			<point x="150" y="792"/>
			<point x="116" y="683"/>
			<point x="116" y="538" type="curve" smooth="yes"/>
			<point x="116" y="366"/>
			<point x="152" y="248"/>
			<point x="152" y="92" type="curve" smooth="yes"/>
			<point x="152" y="0"/>
			<point x="140" y="-30"/>
			<point x="90" y="-30" type="curve" smooth="yes"/>
			<point x="76" y="-30"/>
			<point x="64" y="-29"/>
			<point x="54" y="-26" type="curve"/>
			<point x="38" y="-150" type="line"/>
			<point x="50" y="-153"/>
			<point x="74" y="-158"/>
		</contour>
	</outline>
</glyph>
<glyph name="tackdown" format="2">
	<unicode hex="22A4"/>
	<advance width="540"/>
	<outline>
		<contour>
			<point x="208" y="90" type="line"/>
			<point x="332" y="90" type="line"/>
			<point x="332" y="450" type="line"/>
			<point x="506" y="450" type="line"/>
			<point x="506" y="570" type="line"/>
			<point x="34" y="570" type="line"/>
			<point x="34" y="450" type="line"/>
			<point x="208" y="450" type="line"/>
		</contour>
	</outline>
</glyph>
<glyph name="tackup" format="2">
	<unicode hex="22A5"/>
	<advance width="540"/>
	<outline>
		<contour>
			<point x="34" y="90" type="line"/>
			<point x="506" y="90" type="line"/>
			<point x="506" y="210" type="line"/>
			<point x="332" y="210" type="line"/>
			<point x="332" y="570" type="line"/>
			<point x="208" y="570" type="line"/>
			<point x="208" y="210" type="line"/>
			<point x="34" y="210" type="line"/>
		</contour>
	</outline>
</glyph>
<glyph name="ceilingleft" format="2">
	<unicode hex="231C"/>
	<advance width="360"/>
	<outline>
		<contour>
			<point x="84" y="0" type="line"/>
			<point x="212" y="0" type="line"/>
			<point x="212" y="602" type="line"/>
			<point x="308" y="602" type="line"/>
			<point x="308" y="692" type="line"/>
			<point x="84" y="692" type="line"/>
		</contour>
	</outline>
</glyph>
<glyph name="quoteleftheavy" format="2">
	<unicode hex="275B"/>
	<advance width="360"/>
	<outline>
		<contour>
			<point x="190" y="204" type="curve" smooth="yes"/>
			<point x="282" y="204"/>
			<point x="346" y="272"/>
			<point x="346" y="370" type="curve" smooth="yes"/>
			<point x="346" y="458"/>
			<point x="282" y="516"/>
			<point x="200" y="516" type="curve" smooth="yes"/>
			<point x="174" y="516"/>
			<point x="148" y="509"/>
			<point x="130" y="494" type="curve"/>
			<point x="171" y="376" type="line"/>
			<point x="170" y="504" type="line" smooth="yes"/>
			<point x="170" y="564"/>
			<point x="210" y="602"/>
			<point x="276" y="632" type="curve"/>
			<point x="230" y="706" type="line"/>
			<point x="84" y="644"/>
			<point x="14" y="536"/>
			<point x="14" y="404" type="curve" smooth="yes"/>
			<point x="14" y="282"/>
			<point x="76" y="204"/>
		</contour>
	</outline>
</glyph>
<glyph name="Ginsular" format="2">
	<unicode hex="A77D"/>
	<advance width="628"/>
	<outline>
		<contour>
			<point x="310" y="-188" type="curve" smooth="yes"/>
			<point x="496" y="-188"/>
			<point x="612" y="-101"/>
			<point x="612" y="26" type="curve" smooth="yes"/>
			<point x="612" y="154"/>
			<point x="550" y="196"/>
			<point x="392" y="252" type="curve" smooth="yes"/>
			<point x="278" y="292"/>
			<point x="238" y="320"/>
			<point x="238" y="378" type="curve" smooth="yes"/>
			<point x="238" y="456"/>
			<point x="298" y="506"/>
			<point x="402" y="506" type="curve" smooth="yes"/>
			<point x="582" y="506" type="line"/>
			<point x="582" y="650" type="line"/>
			<point x="34" y="650" type="line"/>
			<point x="34" y="512" type="line"/>
			<point x="160" y="512" type="line"/>
			<point x="160" y="508" type="line"/>
			<point x="104" y="478"/>
			<point x="62" y="419"/>
			<point x="62" y="344" type="curve" smooth="yes"/>
			<point x="62" y="259"/>
			<point x="113" y="198"/>
			<point x="176" y="168" type="curve"/>
			<point x="176" y="164" type="line"/>
			<point x="84" y="126"/>
			<point x="38" y="68"/>
			<point x="38" y="-6" type="curve" smooth="yes"/>
			<point x="38" y="-138"/>
			<point x="163" y="-188"/>
		</contour>
		<contour>
			<point x="328" y="-52" type="curve" smooth="yes"/>
			<point x="240" y="-52"/>
			<point x="190" y="-27"/>
			<point x="190" y="20" type="curve" smooth="yes"/>
			<point x="190" y="60"/>
			<point x="206" y="86"/>
			<point x="268" y="118" type="curve"/>
			<point x="354" y="82"/>
			<point x="436" y="74"/>
			<point x="436" y="14" type="curve" smooth="yes"/>
			<point x="436" y="-22"/>
			<point x="398" y="-52"/>
		</contour>
	</outline>
	<anchor name="aboveUC" x="300" y="672"/>
	<anchor name="belowLC" x="310" y="-182"/>
</glyph>
<glyph name="ginsularturned" format="2">
	<unicode hex="A77F"/>
	<advance width="526"/>
	<outline>
		<contour>
			<point x="44" y="-176" type="line"/>
			<point x="504" y="-176" type="line"/>
			<point x="504" y="-42" type="line"/>
			<point x="406" y="-42" type="line"/>
			<point x="406" y="-38" type="line"/>
			<point x="454" y="-6"/>
			<point x="484" y="34"/>
			<point x="484" y="92" type="curve" smooth="yes"/>
			<point x="484" y="156"/>
			<point x="450" y="200"/>
			<point x="396" y="234" type="curve"/>
			<point x="396" y="238" type="line"/>
			<point x="464" y="266"/>
			<point x="496" y="312"/>
			<point x="496" y="368" type="curve" smooth="yes"/>
			<point x="496" y="473"/>
			<point x="395" y="512"/>
			<point x="276" y="512" type="curve" smooth="yes"/>
			<point x="118" y="512"/>
			<point x="20" y="438"/>
			<point x="20" y="330" type="curve" smooth="yes"/>
			<point x="20" y="240"/>
			<point x="64" y="202"/>
			<point x="194" y="160" type="curve" smooth="yes"/>
			<point x="280" y="132"/>
			<point x="320" y="106"/>
			<point x="320" y="58" type="curve" smooth="yes"/>
			<point x="320" y="-2"/>
			<point x="278" y="-42"/>
			<point x="184" y="-42" type="curve" smooth="yes"/>
			<point x="120" y="-42" type="line"/>
			<point x="44" y="-48" type="line"/>
		</contour>
		<contour>
			<point x="318" y="278" type="curve"/>
			<point x="252" y="310"/>
			<point x="180" y="304"/>
			<point x="180" y="352" type="curve" smooth="yes"/>
			<point x="180" y="376"/>
			<point x="208" y="396"/>
			<point x="258" y="396" type="curve" smooth="yes"/>
			<point x="320" y="396"/>
			<point x="356" y="374"/>
			<point x="356" y="338" type="curve" smooth="yes"/>
			<point x="356" y="314"/>
			<point x="346" y="296"/>
		</contour>
	</outline>
	<anchor name="aboveLC" x="270" y="522"/>
	<anchor name="belowLC" x="270" y="-182"/>
</glyph>
<glyph name="lturned" format="2">
	<unicode hex="A781"/>
	<advance width="298"/>
	<outline>
		<contour>
			<point x="66" y="-176" type="line"/>
			<point x="238" y="-176" type="line"/>
			<point x="238" y="324" type="line" smooth="yes"/>
			<point x="238" y="436"/>
			<point x="200" y="512"/>
			<point x="84" y="512" type="curve" smooth="yes"/>
			<point x="46" y="512"/>
			<point x="18" y="506"/>
			<point x="0" y="498" type="curve"/>
			<point x="20" y="372" type="line"/>
			<point x="28" y="374"/>
			<point x="32" y="374"/>
			<point x="38" y="374" type="curve" smooth="yes"/>
			<point x="50" y="374"/>
			<point x="66" y="364"/>
			<point x="66" y="330" type="curve" smooth="yes"/>
		</contour>
	</outline>
	<anchor name="aboveLC" x="130" y="522"/>
	<anchor name="belowLC" x="150" y="-182"/>
</glyph>
<glyph name="I.a" format="2">
	<unicode hex="A7AE"/>
	<advance width="416"/>
	<outline>
		<contour>
			<point x="54" y="0" type="line"/>
			<point x="362" y="0" type="line"/>
			<point x="362" y="144" type="line"/>
			<point x="294" y="144" type="line"/>
			<point x="294" y="506" type="line"/>
			<point x="362" y="506" type="line"/>
			<point x="362" y="650" type="line"/>
			<point x="54" y="650" type="line"/>
			<point x="54" y="506" type="line"/>
			<point x="122" y="506" type="line"/>
			<point x="122" y="144" type="line"/>
			<point x="54" y="144" type="line"/>
		</contour>
	</outline>
	<anchor name="aboveUC" x="210" y="672"/>
	<anchor name="belowLC" x="210" y="-22"/>
	<anchor name="ogonekUC" x="210" y="0"/>
</glyph>
<glyph name="C.sups" format="2">
	<unicode hex="A7F2"/>
	<advance width="395"/>
	<outline>
		<contour>
			<point x="236" y="360" type="curve" smooth="yes"/>
			<point x="295" y="360"/>
			<point x="346" y="381"/>
			<point x="384" y="426" type="curve"/>
			<point x="319" y="497" type="line"/>
			<point x="300" y="476"/>
			<point x="276" y="462"/>
			<point x="243" y="462" type="curve" smooth="yes"/>
			<point x="188" y="462"/>
			<point x="152" y="506"/>
			<point x="152" y="583" type="curve" smooth="yes"/>
			<point x="152" y="658"/>
			<point x="195" y="704"/>
			<point x="246" y="704" type="curve" smooth="yes"/>
			<point x="273" y="704"/>
			<point x="291" y="694"/>
			<point x="313" y="676" type="curve"/>
			<point x="378" y="749" type="line"/>
			<point x="349" y="782"/>
			<point x="301" y="808"/>
			<point x="244" y="808" type="curve" smooth="yes"/>
			<point x="131" y="808"/>
			<point x="29" y="723"/>
			<point x="29" y="579" type="curve" smooth="yes"/>
			<point x="29" y="433"/>
			<point x="124" y="360"/>
		</contour>
	</outline>
</glyph>
<glyph name="Chilatin.sc" format="2">
	<advance width="510"/>
	<outline>
		<contour>
			<point x="-10" y="-164" type="line"/>
			<point x="170" y="-164" type="line"/>
			<point x="206" y="-55" type="line" smooth="yes"/>
			<point x="219" y="-16"/>
			<point x="234" y="28"/>
			<point x="245" y="74" type="curve"/>
			<point x="249" y="74" type="line"/>
			<point x="262" y="28"/>
			<point x="280" y="-16"/>
			<point x="294" y="-55" type="curve" smooth="yes"/>
			<point x="333" y="-164" type="line"/>
			<point x="520" y="-164" type="line"/>
			<point x="361" y="194" type="line"/>
			<point x="502" y="532" type="line"/>
			<point x="324" y="532" type="line"/>
			<point x="302" y="454" type="line" smooth="yes"/>
			<point x="291" y="416"/>
			<point x="278" y="368"/>
			<point x="266" y="322" type="curve"/>
			<point x="262" y="322" type="line"/>
			<point x="248" y="368"/>
			<point x="233" y="416"/>
			<point x="220" y="454" type="curve" smooth="yes"/>
			<point x="193" y="532" type="line"/>
			<point x="8" y="532" type="line"/>
			<point x="148" y="203" type="line"/>
		</contour>
	</outline>
	<anchor name="aboveUC" x="260" y="562"/>
	<anchor name="belowLC" x="260" y="-182"/>
	<guideline x="186" y="-164" angle="0" identifier="yhywZFe8yL"/>
</glyph>
<glyph name="De.sc" format="2">
	<advance width="620"/>
	<outline>
		<contour>
			<point x="172" y="-172" type="line"/>
			<point x="172" y="0" type="line"/>
			<point x="448" y="0" type="line"/>
			<point x="448" y="-172" type="line"/>
			<point x="596" y="-172" type="line"/>
			<point x="612" y="24" type="line"/>
			<point x="612" y="142" type="line"/>
			<point x="8" y="142" type="line"/>
			<point x="8" y="24" type="line"/>
			<point x="24" y="-172" type="line"/>
		</contour>
		<contour>
			<point x="358" y="50" type="line"/>
			<point x="530" y="50" type="line"/>
			<point x="530" y="532" type="line"/>
			<point x="158" y="532" type="line"/>
			<point x="141" y="442"/>
			<point x="133" y="400"/>
			<point x="115" y="319" type="curve" smooth="yes"/>
			<point x="90" y="201"/>
			<point x="60" y="149"/>
			<point x="34" y="141" type="curve"/>
			<point x="52" y="34" type="line"/>
			<point x="171" y="31"/>
			<point x="236" y="147"/>
			<point x="267" y="298" type="curve" smooth="yes"/>
			<point x="276" y="340"/>
			<point x="279" y="352"/>
			<point x="288" y="392" type="curve"/>
			<point x="358" y="392" type="line"/>
		</contour>
	</outline>
</glyph>
<glyph name="Fhook.sc" format="2">
	<advance width="488"/>
	<outline>
		<contour>
			<point x="72" y="0" type="line"/>
			<point x="244" y="0" type="line"/>
			<point x="244" y="180" type="line"/>
			<point x="420" y="180" type="line"/>
			<point x="420" y="308" type="line"/>
			<point x="244" y="308" type="line"/>
			<point x="244" y="392" type="line"/>
			<point x="448" y="392" type="line"/>
			<point x="448" y="532" type="line"/>
			<point x="72" y="532" type="line"/>
		</contour>
	</outline>
	<anchor name="aboveUC" x="270" y="562"/>
	<anchor name="belowLC" x="168" y="-22"/>
</glyph>
<glyph name="Germandbls.sc" format="2">
	<advance width="652"/>
	<outline>
		<contour>
			<point x="432" y="-12" type="curve" smooth="yes"/>
			<point x="556" y="-12"/>
			<point x="614" y="61"/>
			<point x="614" y="150" type="curve" smooth="yes"/>
			<point x="614" y="234"/>
			<point x="550" y="266"/>
			<point x="492" y="292" type="curve"/>
			<point x="568" y="370" type="line"/>
			<point x="546" y="472"/>
			<point x="460" y="544"/>
			<point x="334" y="544" type="curve" smooth="yes"/>
			<point x="148" y="544"/>
			<point x="76" y="446"/>
			<point x="76" y="328" type="curve" smooth="yes"/>
			<point x="76" y="0" type="line"/>
			<point x="248" y="0" type="line"/>
			<point x="248" y="308" type="line" smooth="yes"/>
			<point x="248" y="374"/>
			<point x="274" y="412"/>
			<point x="328" y="412" type="curve" smooth="yes"/>
			<point x="368" y="412"/>
			<point x="392" y="398"/>
			<point x="408" y="377" type="curve"/>
			<point x="328" y="292" type="line"/>
			<point x="340" y="210" type="line"/>
			<point x="404" y="203"/>
			<point x="442" y="182"/>
			<point x="442" y="152" type="curve" smooth="yes"/>
			<point x="442" y="130"/>
			<point x="426" y="120"/>
			<point x="410" y="120" type="curve" smooth="yes"/>
			<point x="391" y="120"/>
			<point x="372" y="122"/>
			<point x="348" y="140" type="curve"/>
			<point x="276" y="46" type="line"/>
			<point x="306" y="12"/>
			<point x="362" y="-12"/>
		</contour>
	</outline>
</glyph>
<glyph name="I.sc" format="2">
	<advance width="316"/>
	<outline>
		<contour>
			<point x="72" y="0" type="line"/>
			<point x="244" y="0" type="line"/>
			<point x="244" y="532" type="line"/>
			<point x="72" y="532" type="line"/>
		</contour>
	</outline>
	<anchor name="aboveUC" x="160" y="562"/>
	<anchor name="belowLC" x="160" y="-22"/>
	<anchor name="ogonekUC" x="152" y="0"/>
</glyph>
<glyph name="Iogonek.a" format="2">
	<advance width="416"/>
	<outline>
		<contour>
			<point x="218" y="-228" type="curve" smooth="yes"/>
			<point x="258" y="-228"/>
			<point x="308" y="-212"/>
			<point x="338" y="-190" type="curve"/>
			<point x="300" y="-94" type="line"/>
			<point x="290" y="-100"/>
			<point x="274" y="-108"/>
			<point x="258" y="-108" type="curve" smooth="yes"/>
			<point x="232" y="-108"/>
			<point x="216" y="-98"/>
			<point x="216" y="-74" type="curve" smooth="yes"/>
			<point x="216" y="-42"/>
			<point x="254" y="0"/>
			<point x="300" y="0" type="curve" smooth="yes"/>
			<point x="362" y="0" type="line"/>
			<point x="362" y="144" type="line"/>
			<point x="294" y="144" type="line"/>
			<point x="294" y="506" type="line"/>
			<point x="362" y="506" type="line"/>
			<point x="362" y="650" type="line"/>
			<point x="54" y="650" type="line"/>
			<point x="54" y="506" type="line"/>
			<point x="122" y="506" type="line"/>
			<point x="122" y="144" type="line"/>
			<point x="54" y="144" type="line"/>
			<point x="54" y="0" type="line"/>
			<point x="162" y="0" type="line"/>
			<point x="126" y="-20"/>
			<point x="82" y="-66"/>
			<point x="82" y="-126" type="curve" smooth="yes"/>
			<point x="82" y="-190"/>
			<point x="142" y="-228"/>
		</contour>
	</outline>
	<anchor name="aboveUC" x="210" y="672"/>
</glyph>
<glyph name="J.sc" format="2">
	<advance width="482"/>
	<outline>
		<contour>
			<point x="211" y="-12" type="curve" smooth="yes"/>
			<point x="346" y="-12"/>
			<point x="414" y="82"/>
			<point x="414" y="194" type="curve" smooth="yes"/>
			<point x="414" y="532" type="line"/>
			<point x="242" y="532" type="line"/>
			<point x="242" y="188" type="line" smooth="yes"/>
			<point x="242" y="144"/>
			<point x="221" y="130"/>
			<point x="190" y="130" type="curve" smooth="yes"/>
			<point x="162" y="130"/>
			<point x="140" y="146"/>
			<point x="126" y="172" type="curve"/>
			<point x="22" y="98" type="line"/>
			<point x="56" y="26"/>
			<point x="122" y="-12"/>
		</contour>
	</outline>
	<anchor name="aboveUC" x="322" y="562"/>
	<anchor name="belowLC" x="232" y="-22"/>
</glyph>
<glyph name="Ka.sc" format="2">
	<advance width="570"/>
	<outline>
		<contour>
			<point x="72" y="0" type="line"/>
			<point x="244" y="0" type="line"/>
			<point x="244" y="202" type="line"/>
			<point x="286" y="202" type="line"/>
			<point x="398" y="0" type="line"/>
			<point x="580" y="0" type="line"/>
			<point x="410" y="280" type="line"/>
			<point x="452" y="356" type="line" smooth="yes"/>
			<point x="464" y="378"/>
			<point x="476" y="388"/>
			<point x="496" y="388" type="curve" smooth="yes"/>
			<point x="506" y="388"/>
			<point x="516" y="386"/>
			<point x="523" y="384" type="curve"/>
			<point x="550" y="534" type="line"/>
			<point x="534" y="540"/>
			<point x="508" y="544"/>
			<point x="484" y="544" type="curve" smooth="yes"/>
			<point x="416" y="544"/>
			<point x="366" y="518"/>
			<point x="334" y="450" type="curve" smooth="yes"/>
			<point x="282" y="338" type="line"/>
			<point x="244" y="338" type="line"/>
			<point x="244" y="532" type="line"/>
			<point x="72" y="532" type="line"/>
		</contour>
	</outline>
	<anchor name="aboveUC" x="310" y="562"/>
</glyph>
<glyph name="Kahook.sc" format="2">
	<advance width="598"/>
	<outline>
		<contour>
			<point x="306" y="-176" type="curve" smooth="yes"/>
			<point x="454" y="-176"/>
			<point x="558" y="-96"/>
			<point x="558" y="86" type="curve" smooth="yes"/>
			<point x="558" y="256"/>
			<point x="460" y="336"/>
			<point x="294" y="336" type="curve"/>
			<point x="410" y="280" type="line"/>
			<point x="452" y="356" type="line" smooth="yes"/>
			<point x="464" y="378"/>
			<point x="476" y="388"/>
			<point x="496" y="388" type="curve" smooth="yes"/>
			<point x="506" y="388"/>
			<point x="516" y="386"/>
			<point x="523" y="384" type="curve"/>
			<point x="550" y="534" type="line"/>
			<point x="534" y="540"/>
			<point x="508" y="544"/>
			<point x="484" y="544" type="curve" smooth="yes"/>
			<point x="416" y="544"/>
			<point x="366" y="518"/>
			<point x="334" y="450" type="curve" smooth="yes"/>
			<point x="282" y="338" type="line"/>
			<point x="244" y="338" type="line"/>
			<point x="244" y="532" type="line"/>
			<point x="72" y="532" type="line"/>
			<point x="72" y="0" type="line"/>
			<point x="244" y="0" type="line"/>
			<point x="244" y="202" type="line"/>
			<point x="274" y="202" type="line" smooth="yes"/>
			<point x="342" y="202"/>
			<point x="388" y="160"/>
			<point x="388" y="84" type="curve" smooth="yes"/>
			<point x="388" y="2"/>
			<point x="344" y="-42"/>
			<point x="282" y="-42" type="curve" smooth="yes"/>
			<point x="272" y="-42"/>
			<point x="264" y="-40"/>
			<point x="250" y="-36" type="curve"/>
			<point x="220" y="-162" type="line"/>
			<point x="246" y="-172"/>
			<point x="274" y="-176"/>
		</contour>
	</outline>
</glyph>
<glyph name="Khook.sc" format="2">
	<advance width="570"/>
	<outline>
		<contour>
			<point x="72" y="0" type="line"/>
			<point x="244" y="0" type="line"/>
			<point x="244" y="140" type="line"/>
			<point x="286" y="192" type="line"/>
			<point x="398" y="0" type="line"/>
			<point x="580" y="0" type="line"/>
			<point x="384" y="310" type="line"/>
			<point x="548" y="532" type="line"/>
			<point x="364" y="532" type="line"/>
			<point x="248" y="358" type="line"/>
			<point x="244" y="358" type="line"/>
			<point x="244" y="532" type="line"/>
			<point x="72" y="532" type="line"/>
		</contour>
		<contour>
			<point x="422" y="356" type="move"/>
			<point x="434" y="378"/>
			<point x="446" y="388"/>
			<point x="466" y="388" type="curve" smooth="yes"/>
			<point x="476" y="388"/>
			<point x="486" y="386"/>
			<point x="493" y="384" type="curve"/>
			<point x="520" y="534" type="line"/>
			<point x="504" y="540"/>
			<point x="478" y="544"/>
			<point x="454" y="544" type="curve" smooth="yes"/>
			<point x="386" y="544"/>
			<point x="336" y="518"/>
			<point x="304" y="450" type="curve"/>
		</contour>
	</outline>
	<anchor name="aboverightUC" x="470" y="562"/>
	<anchor name="aboveUC" x="304" y="562"/>
	<anchor name="belowLC" x="324" y="-22"/>
</glyph>
<glyph name="N.sc" format="2">
	<advance width="614"/>
	<outline>
		<contour>
			<point x="72" y="0" type="line"/>
			<point x="230" y="0" type="line"/>
			<point x="230" y="106" type="line" smooth="yes"/>
			<point x="230" y="176"/>
			<point x="220" y="262"/>
			<point x="208" y="336" type="curve"/>
			<point x="212" y="336" type="line"/>
			<point x="236" y="270"/>
			<point x="250" y="238"/>
			<point x="269" y="202" type="curve" smooth="yes"/>
			<point x="374" y="0" type="line"/>
			<point x="542" y="0" type="line"/>
			<point x="542" y="532" type="line"/>
			<point x="384" y="532" type="line"/>
			<point x="384" y="426" type="line" smooth="yes"/>
			<point x="384" y="356"/>
			<point x="394" y="270"/>
			<point x="406" y="196" type="curve"/>
			<point x="402" y="196" type="line"/>
			<point x="378" y="262"/>
			<point x="364" y="294"/>
			<point x="345" y="330" type="curve" smooth="yes"/>
			<point x="240" y="532" type="line"/>
			<point x="72" y="532" type="line"/>
		</contour>
	</outline>
	<anchor name="aboveUC" x="320" y="562"/>
	<anchor name="belowLC" x="310" y="-22"/>
</glyph>
<glyph name="OO.sc" format="2">
	<advance width="886"/>
	<outline>
		<contour>
			<point x="44" y="92"/>
			<point x="136" y="-12"/>
			<point x="266" y="-12" type="curve" smooth="yes"/>
			<point x="344" y="-12"/>
			<point x="418" y="14"/>
			<point x="458" y="116" type="curve"/>
			<point x="428" y="116" type="line"/>
			<point x="468" y="14"/>
			<point x="544" y="-12"/>
			<point x="622" y="-12" type="curve" smooth="yes"/>
			<point x="750" y="-12"/>
			<point x="842" y="92"/>
			<point x="842" y="268" type="curve" smooth="yes"/>
			<point x="842" y="446"/>
			<point x="750" y="544"/>
			<point x="622" y="544" type="curve" smooth="yes"/>
			<point x="544" y="544"/>
			<point x="468" y="518"/>
			<point x="428" y="416" type="curve"/>
			<point x="458" y="416" type="line"/>
			<point x="418" y="518"/>
			<point x="344" y="544"/>
			<point x="266" y="544" type="curve" smooth="yes"/>
			<point x="136" y="544"/>
			<point x="44" y="446"/>
			<point x="44" y="268" type="curve" smooth="yes"/>
		</contour>
		<contour>
			<point x="290" y="128" type="curve" smooth="yes"/>
			<point x="246" y="128"/>
			<point x="220" y="182"/>
			<point x="220" y="268" type="curve" smooth="yes"/>
			<point x="220" y="356"/>
			<point x="246" y="404"/>
			<point x="290" y="404" type="curve" smooth="yes"/>
			<point x="338" y="404"/>
			<point x="366" y="356"/>
			<point x="366" y="268" type="curve" smooth="yes"/>
			<point x="366" y="182"/>
			<point x="338" y="128"/>
		</contour>
		<contour>
			<point x="598" y="128" type="curve" smooth="yes"/>
			<point x="548" y="128"/>
			<point x="520" y="182"/>
			<point x="520" y="268" type="curve" smooth="yes"/>
			<point x="520" y="356"/>
			<point x="548" y="404"/>
			<point x="598" y="404" type="curve" smooth="yes"/>
			<point x="642" y="404"/>
			<point x="666" y="356"/>
			<point x="666" y="268" type="curve" smooth="yes"/>
			<point x="666" y="182"/>
			<point x="642" y="128"/>
		</contour>
	</outline>
	<anchor name="aboveUC" x="440" y="562"/>
	<anchor name="belowLC" x="440" y="-22"/>
</glyph>
<glyph name="THEIR" format="2">
	<advance width="1304"/>
	<outline>
		<contour>
			<point x="798" y="286" type="line"/>
			<point x="932" y="222"/>
			<point x="996" y="212"/>
			<point x="1066" y="212" type="curve" smooth="yes"/>
			<point x="1180" y="212"/>
			<point x="1264" y="294"/>
			<point x="1264" y="428" type="curve" smooth="yes"/>
			<point x="1264" y="474"/>
			<point x="1252" y="508"/>
			<point x="1228" y="542" type="curve"/>
			<point x="1096" y="488" type="line"/>
			<point x="1106" y="470"/>
			<point x="1110" y="456"/>
			<point x="1110" y="432" type="curve" smooth="yes"/>
			<point x="1110" y="374"/>
			<point x="1078" y="332"/>
			<point x="1014" y="332" type="curve" smooth="yes"/>
			<point x="950" y="332"/>
			<point x="916" y="343"/>
			<point x="842" y="368" type="curve"/>
		</contour>
		<component base="THEY"/>
	</outline>
</glyph>
<glyph name="Ucyr.sc" format="2">
	<advance width="504"/>
	<outline>
		<contour>
			<point x="152" y="-12" type="curve" smooth="yes"/>
			<point x="252" y="-12"/>
			<point x="310" y="47"/>
			<point x="350" y="142" type="curve" smooth="yes"/>
			<point x="514" y="532" type="line"/>
			<point x="344" y="532" type="line"/>
			<point x="316" y="450" type="line"/>
			<point x="268" y="302" type="line"/>
			<point x="264" y="302" type="line"/>
			<point x="212" y="450" type="line"/>
			<point x="180" y="532" type="line"/>
			<point x="0" y="532" type="line"/>
			<point x="188" y="152" type="line"/>
			<point x="182" y="146" type="line" smooth="yes"/>
			<point x="174" y="138"/>
			<point x="158" y="134"/>
			<point x="144" y="134" type="curve" smooth="yes"/>
			<point x="124" y="134"/>
			<point x="110" y="136"/>
			<point x="98" y="140" type="curve"/>
			<point x="68" y="0" type="line"/>
			<point x="86" y="-8"/>
			<point x="114" y="-12"/>
		</contour>
	</outline>
	<anchor name="aboveUC" x="260" y="562"/>
</glyph>
<glyph name="Vhook.sc" format="2">
	<advance width="560"/>
	<outline>
		<contour>
			<point x="304" y="-12" type="curve" smooth="yes"/>
			<point x="470" y="-12"/>
			<point x="554" y="118"/>
			<point x="554" y="320" type="curve" smooth="yes"/>
			<point x="554" y="477"/>
			<point x="474" y="544"/>
			<point x="374" y="544" type="curve" smooth="yes"/>
			<point x="341" y="544"/>
			<point x="321" y="542"/>
			<point x="302" y="536" type="curve"/>
			<point x="320" y="410" type="line"/>
			<point x="325" y="411"/>
			<point x="330" y="412"/>
			<point x="336" y="412" type="curve" smooth="yes"/>
			<point x="366" y="412"/>
			<point x="378" y="377"/>
			<point x="378" y="294" type="curve" smooth="yes"/>
			<point x="378" y="186"/>
			<point x="354" y="126"/>
			<point x="312" y="126" type="curve" smooth="yes"/>
			<point x="261" y="126"/>
			<point x="238" y="157"/>
			<point x="238" y="223" type="curve" smooth="yes"/>
			<point x="238" y="532" type="line"/>
			<point x="68" y="532" type="line"/>
			<point x="68" y="222" type="line" smooth="yes"/>
			<point x="68" y="70"/>
			<point x="156" y="-12"/>
		</contour>
	</outline>
	<anchor name="aboveLC" x="290" y="522"/>
	<anchor name="belowLC" x="280" y="-22"/>
</glyph>
<glyph name="Y.sc" format="2">
	<advance width="488"/>
	<outline>
		<contour>
			<point x="158" y="0" type="line"/>
			<point x="330" y="0" type="line"/>
			<point x="330" y="176" type="line"/>
			<point x="498" y="532" type="line"/>
			<point x="320" y="532" type="line"/>
			<point x="288" y="436" type="line" smooth="yes"/>
			<point x="274" y="394"/>
			<point x="260" y="358"/>
			<point x="246" y="316" type="curve"/>
			<point x="242" y="316" type="line"/>
			<point x="228" y="358"/>
			<point x="218" y="394"/>
			<point x="204" y="436" type="curve" smooth="yes"/>
			<point x="172" y="532" type="line"/>
			<point x="-10" y="532" type="line"/>
			<point x="158" y="176" type="line"/>
		</contour>
	</outline>
	<anchor name="aboverightUC" x="440" y="562"/>
	<anchor name="aboveUC" x="240" y="562"/>
	<anchor name="belowLC" x="240" y="-22"/>
</glyph>
<glyph name="Yhook.sc" format="2">
	<advance width="488"/>
	<outline>
		<contour>
			<point x="158" y="0" type="line"/>
			<point x="330" y="0" type="line"/>
			<point x="330" y="176" type="line"/>
			<point x="498" y="532" type="line"/>
			<point x="320" y="532" type="line"/>
			<point x="288" y="436" type="line" smooth="yes"/>
			<point x="274" y="394"/>
			<point x="260" y="358"/>
			<point x="246" y="316" type="curve"/>
			<point x="242" y="316" type="line"/>
			<point x="228" y="358"/>
			<point x="218" y="394"/>
			<point x="204" y="436" type="curve" smooth="yes"/>
			<point x="172" y="532" type="line"/>
			<point x="-10" y="532" type="line"/>
			<point x="158" y="176" type="line"/>
		</contour>
		<contour>
			<point x="412" y="356" type="move"/>
			<point x="424" y="378"/>
			<point x="436" y="388"/>
			<point x="456" y="388" type="curve" smooth="yes"/>
			<point x="466" y="388"/>
			<point x="476" y="386"/>
			<point x="483" y="384" type="curve"/>
			<point x="510" y="534" type="line"/>
			<point x="494" y="540"/>
			<point x="468" y="544"/>
			<point x="444" y="544" type="curve" smooth="yes"/>
			<point x="376" y="544"/>
			<point x="326" y="518"/>
			<point x="294" y="450" type="curve"/>
		</contour>
	</outline>
	<anchor name="aboverightUC" x="440" y="562"/>
	<anchor name="aboveUC" x="240" y="562"/>
	<anchor name="belowLC" x="240" y="-22"/>
</glyph>
<glyph name="asper.cap" format="2">
	<advance width="200"/>
	<outline>
		<contour>
			<point x="148" y="386" type="curve"/>
			<point x="170" y="452" type="line"/>
			<point x="143" y="460"/>
			<point x="120" y="475"/>
			<point x="120" y="514" type="curve" smooth="yes"/>
			<point x="120" y="551"/>
			<point x="142" y="575"/>
			<point x="208" y="582" type="curve"/>
			<point x="188" y="666" type="line"/>
			<point x="42" y="662"/>
			<point x="-2" y="603"/>
			<point x="-2" y="524" type="curve" smooth="yes"/>
			<point x="-2" y="434"/>
			<point x="66" y="394"/>
		</contour>
	</outline>
</glyph>
<glyph name="bracketleft.sc" format="2">
	<advance width="360"/>
	<outline>
		<contour>
			<point x="84" y="-102" type="line"/>
			<point x="308" y="-102" type="line"/>
			<point x="308" y="-12" type="line"/>
			<point x="212" y="-12" type="line"/>
			<point x="212" y="528" type="line"/>
			<point x="308" y="528" type="line"/>
			<point x="308" y="618" type="line"/>
			<point x="84" y="618" type="line"/>
		</contour>
	</outline>
</glyph>
<glyph name="brevehoi.cap" format="2">
	<outline>
		<contour>
			<point x="0" y="696" type="curve" smooth="yes"/>
			<point x="102" y="696"/>
			<point x="160" y="738"/>
			<point x="170" y="834" type="curve"/>
			<point x="88" y="850" type="line"/>
			<point x="77" y="804"/>
			<point x="45" y="782"/>
			<point x="0" y="782" type="curve" smooth="yes"/>
			<point x="-45" y="782"/>
			<point x="-77" y="804"/>
			<point x="-88" y="850" type="curve"/>
			<point x="-170" y="834" type="line"/>
			<point x="-160" y="738"/>
			<point x="-102" y="696"/>
		</contour>
		<contour>
			<point x="-36" y="824" type="line"/>
			<point x="35" y="828"/>
			<point x="88" y="852"/>
			<point x="88" y="914" type="curve" smooth="yes"/>
			<point x="88" y="958"/>
			<point x="54" y="994"/>
			<point x="-68" y="998" type="curve"/>
			<point x="-84" y="930" type="line"/>
			<point x="-33" y="926"/>
			<point x="-20" y="916"/>
			<point x="-20" y="900" type="curve" smooth="yes"/>
			<point x="-20" y="884"/>
			<point x="-32" y="879"/>
			<point x="-48" y="876" type="curve"/>
		</contour>
	</outline>
	<anchor name="_aboveUC" x="0" y="672"/>
</glyph>
<glyph name="circumflexcaron.cap" format="2">
	<outline>
		<contour>
			<point x="-200" y="700" type="line"/>
			<point x="-80" y="700" type="line"/>
			<point x="-2" y="750" type="line"/>
			<point x="2" y="750" type="line"/>
			<point x="80" y="700" type="line"/>
			<point x="200" y="700" type="line"/>
			<point x="80" y="820" type="line"/>
			<point x="-80" y="820" type="line"/>
		</contour>
		<contour>
			<point x="-80" y="860" type="line"/>
			<point x="80" y="860" type="line"/>
			<point x="200" y="980" type="line"/>
			<point x="80" y="980" type="line"/>
			<point x="2" y="936" type="line"/>
			<point x="-2" y="936" type="line"/>
			<point x="-80" y="980" type="line"/>
			<point x="-200" y="980" type="line"/>
		</contour>
	</outline>
	<anchor name="_aboveUC" x="0" y="672"/>
</glyph>
<glyph name="circumflexgrave" format="2">
	<outline>
		<contour>
			<point x="-190" y="570" type="line"/>
			<point x="-70" y="570" type="line"/>
			<point x="-2" y="646" type="line"/>
			<point x="2" y="646" type="line"/>
			<point x="70" y="570" type="line"/>
			<point x="190" y="570" type="line"/>
			<point x="80" y="740" type="line"/>
			<point x="-80" y="740" type="line"/>
		</contour>
		<contour>
			<point x="-210" y="670" type="line"/>
			<point x="-130" y="670" type="line"/>
			<point x="-170" y="820" type="line"/>
			<point x="-290" y="820" type="line"/>
			<point x="-300" y="802" type="line"/>
		</contour>
	</outline>
	<anchor name="_aboveLC" x="0" y="522"/>
</glyph>
<glyph name="commaabovecmb.cap" format="2">
	<outline>
		<contour>
			<point x="-48" y="692" type="line"/>
			<point x="48" y="700"/>
			<point x="94" y="754"/>
			<point x="94" y="810" type="curve" smooth="yes"/>
			<point x="94" y="870"/>
			<point x="58" y="908"/>
			<point x="-6" y="908" type="curve" smooth="yes"/>
			<point x="-62" y="908"/>
			<point x="-94" y="884"/>
			<point x="-94" y="844" type="curve" smooth="yes"/>
			<point x="-94" y="800"/>
			<point x="-60" y="784"/>
			<point x="-20" y="784" type="curve" smooth="yes"/>
			<point x="-8" y="784"/>
			<point x="0" y="786"/>
			<point x="6" y="788" type="curve"/>
			<point x="-2" y="770"/>
			<point x="-30" y="758"/>
			<point x="-70" y="754" type="curve"/>
		</contour>
	</outline>
	<anchor name="_aboveUC" x="0" y="672"/>
</glyph>
<glyph name="dieresismacron.cap" format="2">
	<outline>
		<contour>
			<point x="-114" y="694" type="curve" smooth="yes"/>
			<point x="-70" y="694"/>
			<point x="-40" y="726"/>
			<point x="-40" y="768" type="curve" smooth="yes"/>
			<point x="-40" y="810"/>
			<point x="-70" y="842"/>
			<point x="-114" y="842" type="curve" smooth="yes"/>
			<point x="-158" y="842"/>
			<point x="-188" y="810"/>
			<point x="-188" y="768" type="curve" smooth="yes"/>
			<point x="-188" y="726"/>
			<point x="-158" y="694"/>
		</contour>
		<contour>
			<point x="114" y="694" type="curve" smooth="yes"/>
			<point x="158" y="694"/>
			<point x="188" y="726"/>
			<point x="188" y="768" type="curve" smooth="yes"/>
			<point x="188" y="810"/>
			<point x="158" y="842"/>
			<point x="114" y="842" type="curve" smooth="yes"/>
			<point x="70" y="842"/>
			<point x="40" y="810"/>
			<point x="40" y="768" type="curve" smooth="yes"/>
			<point x="40" y="726"/>
			<point x="70" y="694"/>
		</contour>
		<contour>
			<point x="-158" y="876" type="line"/>
			<point x="158" y="876" type="line"/>
			<point x="158" y="962" type="line"/>
			<point x="-158" y="962" type="line"/>
		</contour>
	</outline>
	<anchor name="_aboveUC" x="0" y="672"/>
</glyph>
<glyph name="eacute.sups" format="2">
	<advance width="350"/>
	<outline>
		<contour>
			<point x="130" y="750" type="line"/>
			<point x="220" y="750" type="line"/>
			<point x="330" y="862" type="line"/>
			<point x="320" y="880" type="line"/>
			<point x="190" y="880" type="line"/>
		</contour>
		<component base="e.sups"/>
	</outline>
</glyph>
<glyph name="eight.cap" format="2">
	<advance width="540"/>
	<outline>
		<contour>
			<point x="268" y="-12" type="curve" smooth="yes"/>
			<point x="407" y="-12"/>
			<point x="500" y="64"/>
			<point x="500" y="166" type="curve" smooth="yes"/>
			<point x="500" y="255"/>
			<point x="454" y="310"/>
			<point x="391" y="343" type="curve"/>
			<point x="391" y="347" type="line"/>
			<point x="438" y="376"/>
			<point x="476" y="427"/>
			<point x="476" y="490" type="curve" smooth="yes"/>
			<point x="476" y="595"/>
			<point x="392" y="662"/>
			<point x="274" y="662" type="curve" smooth="yes"/>
			<point x="150" y="662"/>
			<point x="58" y="595"/>
			<point x="58" y="484" type="curve" smooth="yes"/>
			<point x="58" y="415"/>
			<point x="94" y="364"/>
			<point x="146" y="326" type="curve"/>
			<point x="146" y="322" type="line"/>
			<point x="85" y="290"/>
			<point x="42" y="241"/>
			<point x="42" y="162" type="curve" smooth="yes"/>
			<point x="42" y="58"/>
			<point x="139" y="-12"/>
		</contour>
		<contour>
			<point x="306" y="388" type="curve"/>
			<point x="245" y="412"/>
			<point x="212" y="438"/>
			<point x="212" y="484" type="curve" smooth="yes"/>
			<point x="212" y="527"/>
			<point x="239" y="544"/>
			<point x="270" y="544" type="curve" smooth="yes"/>
			<point x="310" y="544"/>
			<point x="334" y="519"/>
			<point x="334" y="476" type="curve" smooth="yes"/>
			<point x="334" y="446"/>
			<point x="326" y="416"/>
		</contour>
		<contour>
			<point x="272" y="106" type="curve" smooth="yes"/>
			<point x="228" y="106"/>
			<point x="190" y="132"/>
			<point x="190" y="182" type="curve" smooth="yes"/>
			<point x="190" y="218"/>
			<point x="202" y="255"/>
			<point x="222" y="278" type="curve"/>
			<point x="298" y="245"/>
			<point x="340" y="223"/>
			<point x="340" y="172" type="curve" smooth="yes"/>
			<point x="340" y="124"/>
			<point x="310" y="106"/>
		</contour>
	</outline>
</glyph>
<glyph name="eogonek.supd" format="2">
	<advance width="350"/>
	<outline>
		<contour>
			<point x="196" y="212" type="curve" smooth="yes"/>
			<point x="224" y="212"/>
			<point x="252" y="222"/>
			<point x="270" y="236" type="curve"/>
			<point x="246" y="296" type="line"/>
			<point x="240" y="292"/>
			<point x="230" y="288"/>
			<point x="220" y="288" type="curve" smooth="yes"/>
			<point x="208" y="288"/>
			<point x="196" y="296"/>
			<point x="196" y="312" type="curve" smooth="yes"/>
			<point x="196" y="333"/>
			<point x="208" y="350"/>
			<point x="260" y="370" type="curve" smooth="yes"/>
			<point x="280" y="378"/>
			<point x="296" y="386"/>
			<point x="318" y="400" type="curve"/>
			<point x="280" y="468" type="line"/>
			<point x="256" y="454"/>
			<point x="234" y="450"/>
			<point x="208" y="450" type="curve" smooth="yes"/>
			<point x="164" y="450"/>
			<point x="132" y="474"/>
			<point x="132" y="534" type="curve" smooth="yes"/>
			<point x="132" y="598"/>
			<point x="152" y="618"/>
			<point x="184" y="618" type="curve" smooth="yes"/>
			<point x="216" y="618"/>
			<point x="232" y="600"/>
			<point x="232" y="550" type="curve"/>
			<point x="258" y="568" type="line"/>
			<point x="108" y="568" type="line"/>
			<point x="108" y="502" type="line"/>
			<point x="324" y="502" type="line"/>
			<point x="326" y="510"/>
			<point x="330" y="526"/>
			<point x="330" y="546" type="curve" smooth="yes"/>
			<point x="330" y="634"/>
			<point x="283" y="708"/>
			<point x="184" y="708" type="curve" smooth="yes"/>
			<point x="98" y="708"/>
			<point x="22" y="638"/>
			<point x="22" y="534" type="curve" smooth="yes"/>
			<point x="22" y="426"/>
			<point x="98" y="360"/>
			<point x="196" y="360" type="curve"/>
			<point x="162" y="374" type="line"/>
			<point x="125" y="348"/>
			<point x="110" y="322"/>
			<point x="110" y="284" type="curve" smooth="yes"/>
			<point x="110" y="237"/>
			<point x="152" y="212"/>
		</contour>
	</outline>
</glyph>
<glyph name="five.dnom" format="2">
	<advance width="380"/>
	<outline>
		<contour>
			<point x="188" y="-12" type="curve" smooth="yes"/>
			<point x="280" y="-12"/>
			<point x="344" y="47"/>
			<point x="344" y="124" type="curve" smooth="yes"/>
			<point x="344" y="202"/>
			<point x="285" y="250"/>
			<point x="217" y="250" type="curve" smooth="yes"/>
			<point x="211" y="250"/>
			<point x="194" y="250"/>
			<point x="178" y="247" type="curve"/>
			<point x="182" y="286" type="line"/>
			<point x="329" y="286" type="line"/>
			<point x="329" y="390" type="line"/>
			<point x="84" y="390" type="line"/>
			<point x="68" y="194" type="line"/>
			<point x="119" y="158" type="line"/>
			<point x="138" y="174"/>
			<point x="152" y="178"/>
			<point x="171" y="178" type="curve" smooth="yes"/>
			<point x="198" y="178"/>
			<point x="222" y="162"/>
			<point x="222" y="130" type="curve" smooth="yes"/>
			<point x="222" y="105"/>
			<point x="202" y="82"/>
			<point x="174" y="82" type="curve" smooth="yes"/>
			<point x="144" y="82"/>
			<point x="122" y="94"/>
			<point x="98" y="126" type="curve"/>
			<point x="24" y="68" type="line"/>
			<point x="60" y="14"/>
			<point x="118" y="-12"/>
		</contour>
	</outline>
</glyph>
<glyph name="five.sc" format="2">
	<advance width="505"/>
	<outline>
		<contour>
			<point x="230" y="-11" type="curve" smooth="yes"/>
			<point x="355" y="-11"/>
			<point x="456" y="60"/>
			<point x="456" y="180" type="curve" smooth="yes"/>
			<point x="456" y="292"/>
			<point x="371" y="344"/>
			<point x="270" y="344" type="curve" smooth="yes"/>
			<point x="254" y="344"/>
			<point x="236" y="342"/>
			<point x="217" y="337" type="curve"/>
			<point x="221" y="392" type="line"/>
			<point x="433" y="392" type="line"/>
			<point x="433" y="532" type="line"/>
			<point x="81" y="532" type="line"/>
			<point x="67" y="252" type="line"/>
			<point x="139" y="206" type="line"/>
			<point x="174" y="227"/>
			<point x="187" y="234"/>
			<point x="221" y="234" type="curve" smooth="yes"/>
			<point x="258" y="234"/>
			<point x="289" y="212"/>
			<point x="289" y="176" type="curve" smooth="yes"/>
			<point x="289" y="139"/>
			<point x="265" y="119"/>
			<point x="216" y="119" type="curve" smooth="yes"/>
			<point x="174" y="119"/>
			<point x="131" y="145"/>
			<point x="96" y="172" type="curve"/>
			<point x="22" y="66" type="line"/>
			<point x="71" y="20"/>
			<point x="140" y="-11"/>
		</contour>
	</outline>
</glyph>
<glyph name="lenisgrave.cap" format="2">
	<advance width="370"/>
	<outline>
		<contour>
			<point x="52" y="386" type="line"/>
			<point x="116" y="394"/>
			<point x="182" y="434"/>
			<point x="182" y="534" type="curve" smooth="yes"/>
			<point x="182" y="607"/>
			<point x="142" y="662"/>
			<point x="12" y="666" type="curve"/>
			<point x="-8" y="582" type="line"/>
			<point x="49" y="577"/>
			<point x="70" y="549"/>
			<point x="70" y="516" type="curve" smooth="yes"/>
			<point x="70" y="476"/>
			<point x="51" y="461"/>
			<point x="30" y="452" type="curve"/>
		</contour>
		<contour>
			<point x="270" y="400" type="line"/>
			<point x="370" y="400" type="line"/>
			<point x="350" y="660" type="line"/>
			<point x="220" y="660" type="line"/>
			<point x="210" y="642" type="line"/>
		</contour>
	</outline>
</glyph>
<glyph name="one.sc" format="2">
  <advance width="416"/>
  <outline>
    <contour>
      <point x="146" y="0" type="line"/>
      <point x="316" y="0" type="line"/>
      <point x="316" y="532" type="line"/>
      <point x="190" y="532" type="line"/>
      <point x="144" y="504"/>
      <point x="101" y="487"/>
      <point x="34" y="474" type="curve"/>
      <point x="34" y="362" type="line"/>
      <point x="146" y="362" type="line"/>
    </contour>
  </outline>
</glyph>
<glyph name="one.tnum" format="2">
  <advance width="540"/>
  <outline>
    <contour>
      <point x="66" y="0" type="line"/>
      <point x="488" y="0" type="line"/>
      <point x="488" y="144" type="line"/>
      <point x="374" y="144" type="line"/>
      <point x="374" y="580" type="line"/>
      <point x="248" y="580" type="line"/>
      <point x="200" y="550"/>
      <point x="154" y="532"/>
      <point x="82" y="518" type="curve"/>
      <point x="82" y="406" type="line"/>
      <point x="202" y="406" type="line"/>
      <point x="202" y="144" type="line"/>
      <point x="66" y="144" type="line"/>
    </contour>
  </outline>
</glyph>
<glyph name="phi.a" format="2">
	<advance width="760"/>
	<outline>
		<contour>
			<point x="304" y="-176" type="line"/>
			<point x="468" y="-176" type="line"/>
			<point x="460" y="-30"/>
			<point x="456" y="126"/>
			<point x="456" y="272" type="curve" smooth="yes"/>
			<point x="456" y="342"/>
			<point x="474" y="372"/>
			<point x="504" y="372" type="curve" smooth="yes"/>
			<point x="535" y="372"/>
			<point x="552" y="346"/>
			<point x="552" y="256" type="curve" smooth="yes"/>
			<point x="552" y="152"/>
			<point x="510" y="122"/>
			<point x="440" y="118" type="curve"/>
			<point x="442" y="-8" type="line"/>
			<point x="588" y="-8"/>
			<point x="728" y="90"/>
			<point x="728" y="268" type="curve" smooth="yes"/>
			<point x="728" y="424"/>
			<point x="646" y="512"/>
			<point x="510" y="512" type="curve" smooth="yes"/>
			<point x="392" y="512"/>
			<point x="304" y="438"/>
			<point x="304" y="243" type="curve" smooth="yes"/>
		</contour>
		<contour>
			<point x="320" y="-8" type="curve"/>
			<point x="328" y="118" type="line"/>
			<point x="234" y="118"/>
			<point x="208" y="172"/>
			<point x="208" y="248" type="curve" smooth="yes"/>
			<point x="208" y="307"/>
			<point x="230" y="362"/>
			<point x="276" y="422" type="curve"/>
			<point x="134" y="522" type="line"/>
			<point x="74" y="452"/>
			<point x="32" y="346"/>
			<point x="32" y="264" type="curve" smooth="yes"/>
			<point x="32" y="88"/>
			<point x="164" y="-8"/>
		</contour>
	</outline>
	<anchor name="aboveLC" x="400" y="522"/>
	<anchor name="belowLC" x="380" y="-182"/>
</glyph>
<glyph name="shcha.c" format="2">
	<advance width="904"/>
	<outline>
		<contour>
			<point x="732" y="-172" type="line"/>
			<point x="880" y="-172" type="line"/>
			<point x="896" y="20" type="line"/>
			<point x="896" y="134" type="line"/>
			<point x="880" y="132"/>
			<point x="870" y="132"/>
			<point x="858" y="132" type="curve" smooth="yes"/>
			<point x="832" y="132"/>
			<point x="814" y="142"/>
			<point x="814" y="170" type="curve"/>
			<point x="814" y="500" type="line"/>
			<point x="642" y="500" type="line"/>
			<point x="642" y="172" type="line"/>
			<point x="616" y="146"/>
			<point x="592" y="134"/>
			<point x="572" y="134" type="curve" smooth="yes"/>
			<point x="538" y="134"/>
			<point x="522" y="150"/>
			<point x="522" y="214" type="curve" smooth="yes"/>
			<point x="522" y="500" type="line"/>
			<point x="350" y="500" type="line"/>
			<point x="350" y="172" type="line"/>
			<point x="324" y="146"/>
			<point x="300" y="134"/>
			<point x="280" y="134" type="curve" smooth="yes"/>
			<point x="246" y="134"/>
			<point x="230" y="150"/>
			<point x="230" y="214" type="curve" smooth="yes"/>
			<point x="230" y="500" type="line"/>
			<point x="58" y="500" type="line"/>
			<point x="58" y="192" type="line" smooth="yes"/>
			<point x="58" y="68"/>
			<point x="106" y="-12"/>
			<point x="216" y="-12" type="curve" smooth="yes"/>
			<point x="284" y="-12"/>
			<point x="329" y="26"/>
			<point x="370" y="68" type="curve"/>
			<point x="397" y="16"/>
			<point x="440" y="-12"/>
			<point x="508" y="-12" type="curve" smooth="yes"/>
			<point x="576" y="-12"/>
			<point x="618" y="22"/>
			<point x="658" y="61" type="curve"/>
			<point x="662" y="61" type="line"/>
			<point x="675" y="31"/>
			<point x="698" y="10"/>
			<point x="732" y="4" type="curve"/>
		</contour>
	</outline>
</glyph>
<glyph name="three.tnum" format="2">
	<advance width="540"/>
	<outline>
		<contour>
			<point x="246" y="-92" type="curve" smooth="yes"/>
			<point x="378" y="-92"/>
			<point x="492" y="-18"/>
			<point x="492" y="102" type="curve" smooth="yes"/>
			<point x="492" y="184"/>
			<point x="442" y="238"/>
			<point x="370" y="260" type="curve"/>
			<point x="370" y="264" type="line"/>
			<point x="438" y="294"/>
			<point x="472" y="348"/>
			<point x="472" y="409" type="curve" smooth="yes"/>
			<point x="472" y="524"/>
			<point x="382" y="592"/>
			<point x="242" y="592" type="curve" smooth="yes"/>
			<point x="164" y="592"/>
			<point x="98" y="562"/>
			<point x="36" y="510" type="curve"/>
			<point x="122" y="406" type="line"/>
			<point x="162" y="440"/>
			<point x="192" y="458"/>
			<point x="234" y="458" type="curve" smooth="yes"/>
			<point x="277" y="458"/>
			<point x="300" y="434"/>
			<point x="300" y="396" type="curve" smooth="yes"/>
			<point x="300" y="352"/>
			<point x="268" y="316"/>
			<point x="162" y="316" type="curve"/>
			<point x="162" y="196" type="line"/>
			<point x="295" y="196"/>
			<point x="320" y="162"/>
			<point x="320" y="114" type="curve" smooth="yes"/>
			<point x="320" y="74"/>
			<point x="284" y="46"/>
			<point x="228" y="46" type="curve" smooth="yes"/>
			<point x="183" y="46"/>
			<point x="137" y="70"/>
			<point x="98" y="106" type="curve"/>
			<point x="20" y="-2" type="line"/>
			<point x="68" y="-58"/>
			<point x="143" y="-92"/>
		</contour>
	</outline>
</glyph>
<glyph name="two.cap" format="2">
  <advance width="540"/>
  <outline>
    <contour>
      <point x="36" y="0" type="line"/>
      <point x="496" y="0" type="line"/>
      <point x="496" y="144" type="line"/>
      <point x="394" y="144" type="line" smooth="yes"/>
      <point x="366" y="144"/>
      <point x="320" y="140"/>
      <point x="288" y="136" type="curve"/>
      <point x="376" y="226"/>
      <point x="466" y="348"/>
      <point x="466" y="454" type="curve" smooth="yes"/>
      <point x="466" y="578"/>
      <point x="376" y="660"/>
      <point x="248" y="660" type="curve" smooth="yes"/>
      <point x="156" y="660"/>
      <point x="96" y="626"/>
      <point x="32" y="554" type="curve"/>
      <point x="120" y="466" type="line"/>
      <point x="150" y="496"/>
      <point x="182" y="526"/>
      <point x="224" y="526" type="curve" smooth="yes"/>
      <point x="265" y="526"/>
      <point x="294" y="499"/>
      <point x="294" y="442" type="curve" smooth="yes"/>
      <point x="294" y="354"/>
      <point x="184" y="232"/>
      <point x="36" y="106" type="curve"/>
    </contour>
  </outline>
</glyph>
<glyph name="two.pnum" format="2">
	<advance width="536"/>
	<outline>
		<contour>
			<point x="46" y="0" type="line"/>
			<point x="486" y="0" type="line"/>
			<point x="486" y="144" type="line"/>
			<point x="404" y="144" type="line" smooth="yes"/>
			<point x="376" y="144"/>
			<point x="330" y="140"/>
			<point x="298" y="136" type="curve"/>
			<point x="382" y="222"/>
			<point x="466" y="338"/>
			<point x="466" y="440" type="curve" smooth="yes"/>
			<point x="466" y="564"/>
			<point x="378" y="646"/>
			<point x="252" y="646" type="curve" smooth="yes"/>
			<point x="160" y="646"/>
			<point x="100" y="612"/>
			<point x="36" y="540" type="curve"/>
			<point x="124" y="452" type="line"/>
			<point x="154" y="482"/>
			<point x="186" y="512"/>
			<point x="228" y="512" type="curve" smooth="yes"/>
			<point x="266" y="512"/>
			<point x="294" y="485"/>
			<point x="294" y="428" type="curve" smooth="yes"/>
			<point x="294" y="344"/>
			<point x="188" y="228"/>
			<point x="46" y="106" type="curve"/>
		</contour>
	</outline>
</glyph>
<glyph name="two.tnum" format="2">
  <advance width="540"/>
  <outline>
    <contour>
      <point x="36" y="0" type="line"/>
      <point x="496" y="0" type="line"/>
      <point x="496" y="144" type="line"/>
      <point x="406" y="144" type="line" smooth="yes"/>
      <point x="378" y="144"/>
      <point x="332" y="140"/>
      <point x="300" y="136" type="curve"/>
      <point x="398" y="220"/>
      <point x="466" y="300"/>
      <point x="466" y="390" type="curve" smooth="yes"/>
      <point x="466" y="510"/>
      <point x="376" y="592"/>
      <point x="248" y="592" type="curve" smooth="yes"/>
      <point x="156" y="592"/>
      <point x="96" y="558"/>
      <point x="32" y="486" type="curve"/>
      <point x="120" y="398" type="line"/>
      <point x="150" y="428"/>
      <point x="184" y="458"/>
      <point x="228" y="458" type="curve" smooth="yes"/>
      <point x="266" y="458"/>
      <point x="294" y="430"/>
      <point x="294" y="382" type="curve" smooth="yes"/>
      <point x="294" y="306"/>
      <point x="184" y="218"/>
      <point x="36" y="106" type="curve"/>
    </contour>
  </outline>
</glyph>
